<svg id="Calque_1" data-name="Calque 1" xmlns="http://www.w3.org/2000/svg" viewBox="0 0 350 350"><defs><style>.cls-1{fill:#c40000;}.cls-2{fill:#5b9696;}.cls-3{fill:#c11025;}.cls-4{fill:#fff;}</style></defs><rect class="cls-1" x="334.64" y="147.49" width="6.52" height="5.7"/><rect class="cls-1" x="334.64" y="140.98" width="6.52" height="6.52"/><rect class="cls-1" x="334.64" y="134.46" width="6.52" height="6.52"/><rect class="cls-1" x="334.64" y="128.76" width="6.52" height="5.7"/><rect class="cls-1" x="334.64" y="122.24" width="6.52" height="6.52"/><rect class="cls-1" x="334.64" y="116.54" width="6.52" height="5.7"/><rect class="cls-1" x="334.64" y="110.02" width="6.52" height="6.52"/><rect class="cls-1" x="334.64" y="103.51" width="6.52" height="6.52"/><rect class="cls-1" x="334.64" y="97.81" width="6.52" height="5.7"/><rect class="cls-1" x="334.64" y="91.29" width="6.52" height="6.52"/><rect class="cls-1" x="334.64" y="84.77" width="6.52" height="6.52"/><rect class="cls-1" x="334.64" y="79.07" width="6.52" height="5.7"/><rect class="cls-1" x="334.64" y="72.56" width="6.52" height="6.52"/><rect class="cls-1" x="334.64" y="66.85" width="6.52" height="5.7"/><rect class="cls-1" x="328.12" y="140.98" width="6.52" height="6.52"/><rect class="cls-1" x="328.12" y="134.46" width="6.52" height="6.52"/><rect class="cls-1" x="328.12" y="128.76" width="6.52" height="5.7"/><rect class="cls-1" x="328.12" y="122.24" width="6.52" height="6.52"/><rect class="cls-1" x="328.12" y="116.54" width="6.52" height="5.7"/><rect class="cls-1" x="328.12" y="110.02" width="6.52" height="6.52"/><rect class="cls-1" x="328.12" y="103.51" width="6.52" height="6.52"/><rect class="cls-1" x="328.12" y="97.81" width="6.52" height="5.7"/><rect class="cls-1" x="328.12" y="91.29" width="6.52" height="6.52"/><rect class="cls-1" x="328.12" y="84.77" width="6.52" height="6.52"/><rect class="cls-1" x="328.12" y="79.07" width="6.52" height="5.7"/><rect class="cls-1" x="328.12" y="72.56" width="6.52" height="6.52"/><rect class="cls-1" x="328.12" y="66.85" width="6.52" height="5.7"/><rect class="cls-1" x="328.12" y="60.34" width="6.52" height="6.52"/><rect class="cls-1" x="321.6" y="134.46" width="6.52" height="6.52"/><rect class="cls-1" x="321.6" y="128.76" width="6.52" height="5.7"/><rect class="cls-1" x="321.6" y="122.24" width="6.52" height="6.52"/><rect class="cls-1" x="321.6" y="116.54" width="6.52" height="5.7"/><rect class="cls-1" x="321.6" y="110.02" width="6.52" height="6.52"/><rect class="cls-1" x="321.6" y="103.51" width="6.52" height="6.52"/><rect class="cls-1" x="321.6" y="97.81" width="6.52" height="5.7"/><rect class="cls-1" x="321.6" y="91.29" width="6.52" height="6.52"/><rect class="cls-1" x="321.6" y="84.77" width="6.52" height="6.52"/><rect class="cls-1" x="321.6" y="79.07" width="6.52" height="5.7"/><rect class="cls-1" x="321.6" y="72.56" width="6.52" height="6.52"/><rect class="cls-1" x="321.6" y="66.85" width="6.52" height="5.7"/><rect class="cls-1" x="321.6" y="60.34" width="6.52" height="6.52"/><rect class="cls-1" x="321.6" y="53.82" width="6.52" height="6.52"/><rect class="cls-1" x="315.09" y="134.46" width="6.52" height="6.52"/><rect class="cls-1" x="315.09" y="128.76" width="6.52" height="5.7"/><rect class="cls-1" x="315.09" y="122.24" width="6.52" height="6.52"/><rect class="cls-1" x="315.09" y="116.54" width="6.52" height="5.7"/><rect class="cls-1" x="315.09" y="110.02" width="6.52" height="6.52"/><rect class="cls-1" x="315.09" y="103.51" width="6.52" height="6.52"/><rect class="cls-1" x="315.09" y="97.81" width="6.52" height="5.7"/><rect class="cls-1" x="315.09" y="91.29" width="6.52" height="6.52"/><rect class="cls-1" x="315.09" y="84.77" width="6.52" height="6.52"/><rect class="cls-1" x="315.09" y="79.07" width="6.52" height="5.7"/><rect class="cls-1" x="315.09" y="72.56" width="6.52" height="6.52"/><rect class="cls-1" x="315.09" y="66.85" width="6.52" height="5.7"/><rect class="cls-1" x="315.09" y="60.34" width="6.52" height="6.52"/><rect class="cls-1" x="315.09" y="53.82" width="6.52" height="6.52"/><rect class="cls-1" x="308.57" y="134.46" width="6.52" height="6.52"/><rect class="cls-1" x="308.57" y="128.76" width="6.52" height="5.7"/><rect class="cls-1" x="308.57" y="122.24" width="6.52" height="6.52"/><rect class="cls-1" x="308.57" y="116.54" width="6.52" height="5.7"/><rect class="cls-1" x="308.57" y="110.02" width="6.52" height="6.52"/><rect class="cls-1" x="308.57" y="103.51" width="6.52" height="6.52"/><rect class="cls-1" x="308.57" y="97.81" width="6.52" height="5.7"/><rect class="cls-1" x="308.57" y="91.29" width="6.52" height="6.52"/><rect class="cls-1" x="308.57" y="84.77" width="6.52" height="6.52"/><rect class="cls-1" x="308.57" y="79.07" width="6.52" height="5.7"/><rect class="cls-1" x="308.57" y="72.56" width="6.52" height="6.52"/><rect class="cls-1" x="308.57" y="66.85" width="6.52" height="5.7"/><rect class="cls-1" x="308.57" y="60.34" width="6.52" height="6.52"/><rect class="cls-1" x="308.57" y="53.82" width="6.52" height="6.52"/><rect class="cls-1" x="302.05" y="134.46" width="6.52" height="6.52"/><rect class="cls-1" x="302.05" y="128.76" width="6.52" height="5.7"/><rect class="cls-1" x="302.05" y="122.24" width="6.52" height="6.52"/><rect class="cls-1" x="302.05" y="116.54" width="6.52" height="5.7"/><rect class="cls-1" x="302.05" y="110.02" width="6.52" height="6.52"/><rect class="cls-1" x="302.05" y="103.51" width="6.52" height="6.52"/><rect class="cls-1" x="302.05" y="97.81" width="6.52" height="5.7"/><rect class="cls-1" x="302.05" y="91.29" width="6.52" height="6.52"/><rect class="cls-1" x="302.05" y="84.77" width="6.52" height="6.52"/><rect class="cls-1" x="302.05" y="79.07" width="6.52" height="5.7"/><rect class="cls-1" x="302.05" y="72.56" width="6.52" height="6.52"/><rect class="cls-1" x="302.05" y="66.85" width="6.52" height="5.7"/><rect class="cls-1" x="302.05" y="60.34" width="6.52" height="6.52"/><rect class="cls-1" x="295.54" y="140.98" width="6.52" height="6.52"/><rect class="cls-1" x="295.54" y="134.46" width="6.52" height="6.52"/><rect class="cls-1" x="295.54" y="128.76" width="6.52" height="5.7"/><rect class="cls-1" x="295.54" y="122.24" width="6.52" height="6.52"/><rect class="cls-1" x="295.54" y="116.54" width="6.52" height="5.7"/><rect class="cls-1" x="295.54" y="110.02" width="6.52" height="6.52"/><rect class="cls-1" x="295.54" y="103.51" width="6.52" height="6.52"/><rect class="cls-1" x="295.54" y="97.81" width="6.52" height="5.7"/><rect class="cls-1" x="295.54" y="91.29" width="6.52" height="6.52"/><rect class="cls-1" x="295.54" y="84.77" width="6.52" height="6.52"/><rect class="cls-1" x="295.54" y="79.07" width="6.52" height="5.7"/><rect class="cls-1" x="295.54" y="72.56" width="6.52" height="6.52"/><rect class="cls-1" x="295.54" y="66.85" width="6.52" height="5.7"/><rect class="cls-1" x="295.54" y="60.34" width="6.52" height="6.52"/><rect class="cls-1" x="289.02" y="147.49" width="6.52" height="5.7"/><rect class="cls-1" x="289.02" y="140.98" width="6.52" height="6.52"/><rect class="cls-1" x="289.02" y="134.46" width="6.52" height="6.52"/><rect class="cls-1" x="289.02" y="128.76" width="6.52" height="5.7"/><rect class="cls-1" x="289.02" y="122.24" width="6.52" height="6.52"/><rect class="cls-1" x="289.02" y="116.54" width="6.52" height="5.7"/><rect class="cls-1" x="289.02" y="110.02" width="6.52" height="6.52"/><rect class="cls-1" x="289.02" y="103.51" width="6.52" height="6.52"/><rect class="cls-1" x="289.02" y="97.81" width="6.52" height="5.7"/><rect class="cls-1" x="289.02" y="91.29" width="6.52" height="6.52"/><rect class="cls-1" x="289.02" y="84.77" width="6.52" height="6.52"/><rect class="cls-1" x="289.02" y="79.07" width="6.52" height="5.7"/><rect class="cls-1" x="289.02" y="72.56" width="6.52" height="6.52"/><rect class="cls-1" x="289.02" y="66.85" width="6.52" height="5.7"/><rect class="cls-1" x="282.51" y="147.49" width="6.52" height="5.7"/><rect class="cls-1" x="282.51" y="140.98" width="6.52" height="6.52"/><rect class="cls-1" x="282.51" y="134.46" width="6.52" height="6.52"/><rect class="cls-1" x="282.51" y="128.76" width="6.52" height="5.7"/><rect class="cls-1" x="282.51" y="122.24" width="6.52" height="6.52"/><rect class="cls-1" x="282.51" y="116.54" width="6.52" height="5.7"/><rect class="cls-1" x="282.51" y="110.02" width="6.52" height="6.52"/><rect class="cls-1" x="282.51" y="103.51" width="6.52" height="6.52"/><rect class="cls-1" x="282.51" y="97.81" width="6.52" height="5.7"/><rect class="cls-1" x="282.51" y="91.29" width="6.52" height="6.52"/><rect class="cls-1" x="282.51" y="84.77" width="6.52" height="6.52"/><rect class="cls-1" x="282.51" y="79.07" width="6.52" height="5.7"/><rect class="cls-1" x="282.51" y="72.56" width="6.52" height="6.52"/><rect class="cls-1" x="282.51" y="66.85" width="6.52" height="5.7"/><rect class="cls-1" x="275.99" y="147.49" width="6.52" height="5.7"/><rect class="cls-1" x="275.99" y="140.98" width="6.52" height="6.52"/><rect class="cls-1" x="275.99" y="134.46" width="6.52" height="6.52"/><rect class="cls-1" x="275.99" y="122.24" width="6.52" height="6.52"/><rect class="cls-1" x="275.99" y="116.54" width="6.52" height="5.7"/><rect class="cls-1" x="275.99" y="110.02" width="6.52" height="6.52"/><rect class="cls-1" x="275.99" y="103.51" width="6.52" height="6.52"/><rect class="cls-1" x="275.99" y="97.81" width="6.52" height="5.7"/><rect class="cls-1" x="275.99" y="91.29" width="6.52" height="6.52"/><rect class="cls-1" x="275.99" y="84.77" width="6.52" height="6.52"/><rect class="cls-1" x="275.99" y="79.07" width="6.52" height="5.7"/><rect class="cls-1" x="275.99" y="72.56" width="6.52" height="6.52"/><rect class="cls-1" x="269.47" y="153.19" width="6.52" height="6.52"/><rect class="cls-1" x="269.47" y="147.49" width="6.52" height="5.7"/><rect class="cls-1" x="269.47" y="140.98" width="6.52" height="6.52"/><rect class="cls-1" x="269.47" y="134.46" width="6.52" height="6.52"/><rect class="cls-1" x="269.47" y="122.24" width="6.52" height="6.52"/><rect class="cls-1" x="269.47" y="116.54" width="6.52" height="5.7"/><rect class="cls-1" x="269.47" y="110.02" width="6.52" height="6.52"/><rect class="cls-1" x="269.47" y="103.51" width="6.52" height="6.52"/><rect class="cls-1" x="269.47" y="97.81" width="6.52" height="5.7"/><rect class="cls-1" x="269.47" y="91.29" width="6.52" height="6.52"/><rect class="cls-1" x="269.47" y="84.77" width="6.52" height="6.52"/><rect class="cls-1" x="269.47" y="79.07" width="6.52" height="5.7"/><rect class="cls-1" x="269.47" y="72.56" width="6.52" height="6.52"/><rect class="cls-1" x="262.96" y="153.19" width="6.52" height="6.52"/><rect class="cls-1" x="262.96" y="147.49" width="6.52" height="5.7"/><rect class="cls-1" x="262.96" y="140.98" width="6.52" height="6.52"/><rect class="cls-1" x="262.96" y="134.46" width="6.52" height="6.52"/><rect class="cls-1" x="262.96" y="128.76" width="6.52" height="5.7"/><rect class="cls-1" x="262.96" y="122.24" width="6.52" height="6.52"/><rect class="cls-1" x="262.96" y="116.54" width="6.52" height="5.7"/><rect class="cls-1" x="262.96" y="110.02" width="6.52" height="6.52"/><rect class="cls-1" x="262.96" y="103.51" width="6.52" height="6.52"/><rect class="cls-1" x="262.96" y="97.81" width="6.52" height="5.7"/><rect class="cls-1" x="262.96" y="91.29" width="6.52" height="6.52"/><rect class="cls-1" x="262.96" y="84.77" width="6.52" height="6.52"/><rect class="cls-1" x="262.96" y="79.07" width="6.52" height="5.7"/><rect class="cls-1" x="262.96" y="72.56" width="6.52" height="6.52"/><rect class="cls-1" x="256.44" y="153.19" width="6.52" height="6.52"/><rect class="cls-1" x="256.44" y="147.49" width="6.52" height="5.7"/><rect class="cls-1" x="256.44" y="140.98" width="6.52" height="6.52"/><rect class="cls-1" x="256.44" y="134.46" width="6.52" height="6.52"/><rect class="cls-1" x="256.44" y="128.76" width="6.52" height="5.7"/><rect class="cls-1" x="256.44" y="122.24" width="6.52" height="6.52"/><rect class="cls-1" x="256.44" y="116.54" width="6.52" height="5.7"/><rect class="cls-1" x="256.44" y="110.02" width="6.52" height="6.52"/><rect class="cls-1" x="256.44" y="103.51" width="6.52" height="6.52"/><rect class="cls-1" x="256.44" y="97.81" width="6.52" height="5.7"/><rect class="cls-1" x="256.44" y="91.29" width="6.52" height="6.52"/><rect class="cls-1" x="256.44" y="84.77" width="6.52" height="6.52"/><rect class="cls-1" x="256.44" y="79.07" width="6.52" height="5.7"/><rect class="cls-1" x="256.44" y="72.56" width="6.52" height="6.52"/><rect class="cls-1" x="249.93" y="153.19" width="6.52" height="6.52"/><rect class="cls-1" x="249.93" y="147.49" width="6.52" height="5.7"/><rect class="cls-1" x="249.93" y="140.98" width="6.52" height="6.52"/><rect class="cls-1" x="249.93" y="134.46" width="6.52" height="6.52"/><rect class="cls-1" x="249.93" y="128.76" width="6.52" height="5.7"/><rect class="cls-1" x="249.93" y="122.24" width="6.52" height="6.52"/><rect class="cls-1" x="249.93" y="103.51" width="6.52" height="6.52"/><rect class="cls-1" x="249.93" y="97.81" width="6.52" height="5.7"/><rect class="cls-1" x="249.93" y="91.29" width="6.52" height="6.52"/><rect class="cls-1" x="249.93" y="84.77" width="6.52" height="6.52"/><rect class="cls-1" x="249.93" y="79.07" width="6.52" height="5.7"/><rect class="cls-1" x="249.93" y="72.56" width="6.52" height="6.52"/><rect class="cls-1" x="243.41" y="153.19" width="6.52" height="6.52"/><rect class="cls-1" x="243.41" y="147.49" width="6.52" height="5.7"/><rect class="cls-1" x="243.41" y="140.98" width="6.52" height="6.52"/><rect class="cls-1" x="243.41" y="134.46" width="6.52" height="6.52"/><rect class="cls-1" x="243.41" y="128.76" width="6.52" height="5.7"/><rect class="cls-1" x="243.41" y="103.51" width="6.52" height="6.52"/><rect class="cls-1" x="243.41" y="97.81" width="6.52" height="5.7"/><rect class="cls-1" x="243.41" y="91.29" width="6.52" height="6.52"/><rect class="cls-1" x="243.41" y="84.77" width="6.52" height="6.52"/><rect class="cls-1" x="243.41" y="79.07" width="6.52" height="5.7"/><rect class="cls-1" x="243.41" y="72.56" width="6.52" height="6.52"/><rect class="cls-1" x="236.89" y="153.19" width="6.52" height="6.52"/><rect class="cls-1" x="236.89" y="147.49" width="6.52" height="5.7"/><rect class="cls-1" x="236.89" y="140.98" width="6.52" height="6.52"/><rect class="cls-1" x="236.89" y="134.46" width="6.52" height="6.52"/><rect class="cls-1" x="236.89" y="110.02" width="6.52" height="6.52"/><rect class="cls-1" x="236.89" y="97.81" width="6.52" height="5.7"/><rect class="cls-1" x="236.89" y="91.29" width="6.52" height="6.52"/><rect class="cls-1" x="236.89" y="84.77" width="6.52" height="6.52"/><rect class="cls-1" x="236.89" y="79.07" width="6.52" height="5.7"/><rect class="cls-1" x="236.89" y="72.56" width="6.52" height="6.52"/><rect class="cls-1" x="230.38" y="153.19" width="6.52" height="6.52"/><rect class="cls-1" x="230.38" y="147.49" width="6.52" height="5.7"/><rect class="cls-1" x="230.38" y="140.98" width="6.52" height="6.52"/><rect class="cls-1" x="230.38" y="134.46" width="6.52" height="6.52"/><rect class="cls-1" x="230.38" y="103.51" width="6.52" height="6.52"/><rect class="cls-1" x="230.38" y="91.29" width="6.52" height="6.52"/><rect class="cls-1" x="230.38" y="84.77" width="6.52" height="6.52"/><rect class="cls-1" x="230.38" y="79.07" width="6.52" height="5.7"/><rect class="cls-1" x="230.38" y="72.56" width="6.52" height="6.52"/><rect class="cls-1" x="223.86" y="153.19" width="6.52" height="6.52"/><rect class="cls-1" x="223.86" y="147.49" width="6.52" height="5.7"/><rect class="cls-1" x="223.86" y="140.98" width="6.52" height="6.52"/><rect class="cls-1" x="223.86" y="134.46" width="6.52" height="6.52"/><rect class="cls-1" x="223.86" y="97.81" width="6.52" height="5.7"/><rect class="cls-1" x="223.86" y="91.29" width="6.52" height="6.52"/><rect class="cls-1" x="223.86" y="84.77" width="6.52" height="6.52"/><rect class="cls-1" x="223.86" y="79.07" width="6.52" height="5.7"/><rect class="cls-1" x="223.86" y="72.56" width="6.52" height="6.52"/><rect class="cls-1" x="223.86" y="66.85" width="6.52" height="5.7"/><rect class="cls-1" x="217.35" y="153.19" width="6.52" height="6.52"/><rect class="cls-1" x="217.35" y="147.49" width="6.52" height="5.7"/><rect class="cls-1" x="217.35" y="140.98" width="6.52" height="6.52"/><rect class="cls-1" x="217.35" y="134.46" width="6.52" height="6.52"/><rect class="cls-1" x="217.35" y="128.76" width="6.52" height="5.7"/><rect class="cls-1" x="217.35" y="122.24" width="6.52" height="6.52"/><rect class="cls-1" x="217.35" y="116.54" width="6.52" height="5.7"/><rect class="cls-1" x="217.35" y="110.02" width="6.52" height="6.52"/><rect class="cls-1" x="217.35" y="103.51" width="6.52" height="6.52"/><rect class="cls-1" x="217.35" y="97.81" width="6.52" height="5.7"/><rect class="cls-1" x="217.35" y="91.29" width="6.52" height="6.52"/><rect class="cls-1" x="217.35" y="84.77" width="6.52" height="6.52"/><rect class="cls-1" x="217.35" y="79.07" width="6.52" height="5.7"/><rect class="cls-1" x="217.35" y="72.56" width="6.52" height="6.52"/><rect class="cls-1" x="217.35" y="66.85" width="6.52" height="5.7"/><rect class="cls-1" x="217.35" y="60.34" width="6.52" height="6.52"/><rect class="cls-1" x="210.83" y="153.19" width="6.52" height="6.52"/><rect class="cls-1" x="210.83" y="147.49" width="6.52" height="5.7"/><rect class="cls-1" x="210.83" y="140.98" width="6.52" height="6.52"/><rect class="cls-1" x="210.83" y="134.46" width="6.52" height="6.52"/><rect class="cls-1" x="210.83" y="128.76" width="6.52" height="5.7"/><rect class="cls-1" x="210.83" y="122.24" width="6.52" height="6.52"/><rect class="cls-1" x="210.83" y="116.54" width="6.52" height="5.7"/><rect class="cls-1" x="210.83" y="110.02" width="6.52" height="6.52"/><rect class="cls-1" x="210.83" y="103.51" width="6.52" height="6.52"/><rect class="cls-1" x="210.83" y="97.81" width="6.52" height="5.7"/><rect class="cls-1" x="210.83" y="91.29" width="6.52" height="6.52"/><rect class="cls-1" x="210.83" y="84.77" width="6.52" height="6.52"/><rect class="cls-1" x="210.83" y="79.07" width="6.52" height="5.7"/><rect class="cls-1" x="210.83" y="72.56" width="6.52" height="6.52"/><rect class="cls-1" x="210.83" y="66.85" width="6.52" height="5.7"/><rect class="cls-1" x="210.83" y="60.34" width="6.52" height="6.52"/><rect class="cls-1" x="210.83" y="53.82" width="6.52" height="6.52"/><rect class="cls-1" x="204.31" y="153.19" width="6.52" height="6.52"/><rect class="cls-1" x="204.31" y="147.49" width="6.52" height="5.7"/><rect class="cls-1" x="204.31" y="140.98" width="6.52" height="6.52"/><rect class="cls-1" x="204.31" y="134.46" width="6.52" height="6.52"/><rect class="cls-1" x="204.31" y="128.76" width="6.52" height="5.7"/><rect class="cls-1" x="204.31" y="122.24" width="6.52" height="6.52"/><rect class="cls-1" x="204.31" y="116.54" width="6.52" height="5.7"/><rect class="cls-1" x="204.31" y="110.02" width="6.52" height="6.52"/><rect class="cls-1" x="204.31" y="103.51" width="6.52" height="6.52"/><rect class="cls-1" x="204.31" y="97.81" width="6.52" height="5.7"/><rect class="cls-1" x="204.31" y="91.29" width="6.52" height="6.52"/><rect class="cls-1" x="204.31" y="84.77" width="6.52" height="6.52"/><rect class="cls-1" x="204.31" y="79.07" width="6.52" height="5.7"/><rect class="cls-1" x="204.31" y="72.56" width="6.52" height="6.52"/><rect class="cls-1" x="204.31" y="66.85" width="6.52" height="5.7"/><rect class="cls-1" x="204.31" y="60.34" width="6.52" height="6.52"/><rect class="cls-1" x="204.31" y="53.82" width="6.52" height="6.52"/><rect class="cls-1" x="197.8" y="147.49" width="6.52" height="5.7"/><rect class="cls-1" x="197.8" y="140.98" width="6.52" height="6.52"/><rect class="cls-1" x="197.8" y="134.46" width="6.52" height="6.52"/><rect class="cls-1" x="197.8" y="128.76" width="6.52" height="5.7"/><rect class="cls-1" x="197.8" y="122.24" width="6.52" height="6.52"/><rect class="cls-1" x="197.8" y="116.54" width="6.52" height="5.7"/><rect class="cls-1" x="197.8" y="110.02" width="6.52" height="6.52"/><rect class="cls-1" x="197.8" y="103.51" width="6.52" height="6.52"/><rect class="cls-1" x="197.8" y="97.81" width="6.52" height="5.7"/><rect class="cls-1" x="197.8" y="91.29" width="6.52" height="6.52"/><rect class="cls-1" x="197.8" y="84.77" width="6.52" height="6.52"/><rect class="cls-1" x="197.8" y="79.07" width="6.52" height="5.7"/><rect class="cls-1" x="197.8" y="72.56" width="6.52" height="6.52"/><rect class="cls-1" x="197.8" y="66.85" width="6.52" height="5.7"/><rect class="cls-1" x="197.8" y="60.34" width="6.52" height="6.52"/><rect class="cls-1" x="197.8" y="53.82" width="6.52" height="6.52"/><rect class="cls-1" x="197.8" y="48.12" width="6.52" height="5.7"/><rect class="cls-1" x="191.28" y="147.49" width="6.52" height="5.7"/><rect class="cls-1" x="191.28" y="140.98" width="6.52" height="6.52"/><rect class="cls-1" x="191.28" y="134.46" width="6.52" height="6.52"/><rect class="cls-1" x="191.28" y="128.76" width="6.52" height="5.7"/><rect class="cls-1" x="191.28" y="122.24" width="6.52" height="6.52"/><rect class="cls-1" x="191.28" y="116.54" width="6.52" height="5.7"/><rect class="cls-1" x="191.28" y="110.02" width="6.52" height="6.52"/><rect class="cls-1" x="191.28" y="103.51" width="6.52" height="6.52"/><rect class="cls-1" x="191.28" y="97.81" width="6.52" height="5.7"/><rect class="cls-1" x="191.28" y="91.29" width="6.52" height="6.52"/><rect class="cls-1" x="191.28" y="84.77" width="6.52" height="6.52"/><rect class="cls-1" x="191.28" y="79.07" width="6.52" height="5.7"/><rect class="cls-1" x="191.28" y="72.56" width="6.52" height="6.52"/><rect class="cls-1" x="191.28" y="66.85" width="6.52" height="5.7"/><rect class="cls-1" x="191.28" y="60.34" width="6.52" height="6.52"/><rect class="cls-1" x="191.28" y="53.82" width="6.52" height="6.52"/><rect class="cls-1" x="191.28" y="48.12" width="6.52" height="5.7"/><rect class="cls-1" x="184.76" y="140.98" width="6.52" height="6.52"/><rect class="cls-1" x="184.76" y="134.46" width="6.52" height="6.52"/><rect class="cls-1" x="184.76" y="128.76" width="6.52" height="5.7"/><rect class="cls-1" x="184.76" y="122.24" width="6.52" height="6.52"/><rect class="cls-1" x="184.76" y="116.54" width="6.52" height="5.7"/><rect class="cls-1" x="184.76" y="110.02" width="6.52" height="6.52"/><rect class="cls-1" x="184.76" y="103.51" width="6.52" height="6.52"/><rect class="cls-1" x="184.76" y="97.81" width="6.52" height="5.7"/><rect class="cls-1" x="184.76" y="91.29" width="6.52" height="6.52"/><rect class="cls-1" x="184.76" y="84.77" width="6.52" height="6.52"/><rect class="cls-1" x="184.76" y="79.07" width="6.52" height="5.7"/><rect class="cls-1" x="184.76" y="72.56" width="6.52" height="6.52"/><rect class="cls-1" x="184.76" y="66.85" width="6.52" height="5.7"/><rect class="cls-1" x="184.76" y="60.34" width="6.52" height="6.52"/><rect class="cls-1" x="184.76" y="53.82" width="6.52" height="6.52"/><rect class="cls-1" x="184.76" y="48.12" width="6.52" height="5.7"/><rect class="cls-1" x="178.25" y="140.98" width="6.52" height="6.52"/><rect class="cls-1" x="178.25" y="134.46" width="6.52" height="6.52"/><rect class="cls-1" x="178.25" y="128.76" width="6.52" height="5.7"/><rect class="cls-1" x="178.25" y="122.24" width="6.52" height="6.52"/><rect class="cls-1" x="178.25" y="116.54" width="6.52" height="5.7"/><rect class="cls-1" x="178.25" y="110.02" width="6.52" height="6.52"/><rect class="cls-1" x="178.25" y="103.51" width="6.52" height="6.52"/><rect class="cls-1" x="178.25" y="97.81" width="6.52" height="5.7"/><rect class="cls-1" x="178.25" y="91.29" width="6.52" height="6.52"/><rect class="cls-1" x="178.25" y="84.77" width="6.52" height="6.52"/><rect class="cls-1" x="178.25" y="79.07" width="6.52" height="5.7"/><rect class="cls-1" x="178.25" y="72.56" width="6.52" height="6.52"/><rect class="cls-1" x="178.25" y="66.85" width="6.52" height="5.7"/><rect class="cls-1" x="178.25" y="60.34" width="6.52" height="6.52"/><rect class="cls-1" x="178.25" y="53.82" width="6.52" height="6.52"/><rect class="cls-1" x="178.25" y="48.12" width="6.52" height="5.7"/><rect class="cls-1" x="171.73" y="134.46" width="6.52" height="6.52"/><rect class="cls-1" x="171.73" y="128.76" width="6.52" height="5.7"/><rect class="cls-1" x="171.73" y="122.24" width="6.52" height="6.52"/><rect class="cls-1" x="171.73" y="116.54" width="6.52" height="5.7"/><rect class="cls-1" x="171.73" y="110.02" width="6.52" height="6.52"/><rect class="cls-1" x="171.73" y="103.51" width="6.52" height="6.52"/><rect class="cls-1" x="171.73" y="97.81" width="6.52" height="5.7"/><rect class="cls-1" x="171.73" y="91.29" width="6.52" height="6.52"/><rect class="cls-1" x="171.73" y="84.77" width="6.52" height="6.52"/><rect class="cls-1" x="171.73" y="79.07" width="6.52" height="5.7"/><rect class="cls-1" x="171.73" y="72.56" width="6.52" height="6.52"/><rect class="cls-1" x="171.73" y="66.85" width="6.52" height="5.7"/><rect class="cls-1" x="171.73" y="60.34" width="6.52" height="6.52"/><rect class="cls-1" x="171.73" y="53.82" width="6.52" height="6.52"/><rect class="cls-2" x="165.22" y="91.29" width="6.52" height="6.52"/><rect class="cls-2" x="165.22" y="84.77" width="6.52" height="6.52"/><rect class="cls-2" x="165.22" y="79.07" width="6.52" height="5.7"/><rect class="cls-2" x="165.22" y="72.56" width="6.52" height="6.52"/><rect class="cls-2" x="165.22" y="66.85" width="6.52" height="5.7"/><rect class="cls-2" x="165.22" y="60.34" width="6.52" height="6.52"/><rect class="cls-2" x="165.22" y="53.82" width="6.52" height="6.52"/><rect class="cls-2" x="165.22" y="48.12" width="6.52" height="5.7"/><rect class="cls-2" x="158.7" y="91.29" width="6.52" height="6.52"/><rect class="cls-2" x="158.7" y="84.77" width="6.52" height="6.52"/><rect class="cls-2" x="158.7" y="79.07" width="6.52" height="5.7"/><rect class="cls-2" x="158.7" y="72.56" width="6.52" height="6.52"/><rect class="cls-2" x="158.7" y="66.85" width="6.52" height="5.7"/><rect class="cls-2" x="158.7" y="60.34" width="6.52" height="6.52"/><rect class="cls-2" x="158.7" y="53.82" width="6.52" height="6.52"/><rect class="cls-2" x="158.7" y="48.12" width="6.52" height="5.7"/><rect class="cls-3" x="282.48" y="147.48" width="6.52" height="5.7"/><rect class="cls-3" x="282.48" y="140.97" width="6.52" height="6.52"/><rect class="cls-3" x="282.48" y="135.27" width="6.52" height="5.7"/><rect class="cls-3" x="282.48" y="128.75" width="6.52" height="6.52"/><rect class="cls-3" x="282.48" y="122.23" width="6.52" height="6.52"/><rect class="cls-3" x="282.48" y="116.53" width="6.52" height="5.7"/><rect class="cls-3" x="282.48" y="110.02" width="6.52" height="6.52"/><rect class="cls-3" x="282.48" y="104.31" width="6.52" height="5.7"/><rect class="cls-3" x="282.48" y="97.8" width="6.52" height="6.52"/><rect class="cls-3" x="275.97" y="147.48" width="6.52" height="5.7"/><rect class="cls-3" x="275.97" y="140.97" width="6.52" height="6.52"/><rect class="cls-3" x="275.97" y="135.27" width="6.52" height="5.7"/><rect class="cls-3" x="275.97" y="128.75" width="6.52" height="6.52"/><rect class="cls-3" x="275.97" y="122.23" width="6.52" height="6.52"/><rect class="cls-3" x="275.97" y="116.53" width="6.52" height="5.7"/><rect class="cls-3" x="275.97" y="110.02" width="6.52" height="6.52"/><rect class="cls-3" x="275.97" y="104.31" width="6.52" height="5.7"/><rect class="cls-3" x="275.97" y="97.8" width="6.52" height="6.52"/><rect class="cls-3" x="269.45" y="153.19" width="6.52" height="6.52"/><rect class="cls-3" x="269.45" y="147.48" width="6.52" height="5.7"/><rect class="cls-3" x="269.45" y="140.97" width="6.52" height="6.52"/><rect class="cls-3" x="269.45" y="135.27" width="6.52" height="5.7"/><rect class="cls-3" x="269.45" y="128.75" width="6.52" height="6.52"/><rect class="cls-3" x="269.45" y="122.23" width="6.52" height="6.52"/><rect class="cls-3" x="269.45" y="116.53" width="6.52" height="5.7"/><rect class="cls-3" x="269.45" y="110.02" width="6.52" height="6.52"/><rect class="cls-3" x="269.45" y="104.31" width="6.52" height="5.7"/><rect class="cls-3" x="269.45" y="97.8" width="6.52" height="6.52"/><rect class="cls-3" x="262.94" y="153.19" width="6.52" height="6.52"/><rect class="cls-3" x="262.94" y="147.48" width="6.52" height="5.7"/><rect class="cls-3" x="262.94" y="140.97" width="6.52" height="6.52"/><rect class="cls-3" x="262.94" y="135.27" width="6.52" height="5.7"/><rect class="cls-3" x="262.94" y="128.75" width="6.52" height="6.52"/><rect class="cls-3" x="262.94" y="122.23" width="6.52" height="6.52"/><rect class="cls-3" x="262.94" y="116.53" width="6.52" height="5.7"/><rect class="cls-3" x="262.94" y="110.02" width="6.52" height="6.52"/><rect class="cls-3" x="262.94" y="104.31" width="6.52" height="5.7"/><rect class="cls-3" x="262.94" y="97.8" width="6.52" height="6.52"/><rect class="cls-3" x="256.42" y="153.19" width="6.52" height="6.52"/><rect class="cls-3" x="256.42" y="147.48" width="6.52" height="5.7"/><rect class="cls-3" x="256.42" y="140.97" width="6.52" height="6.52"/><rect class="cls-3" x="256.42" y="135.27" width="6.52" height="5.7"/><rect class="cls-3" x="256.42" y="128.75" width="6.52" height="6.52"/><rect class="cls-3" x="256.42" y="122.23" width="6.52" height="6.52"/><rect class="cls-3" x="256.42" y="116.53" width="6.52" height="5.7"/><rect class="cls-3" x="256.42" y="110.02" width="6.52" height="6.52"/><rect class="cls-3" x="256.42" y="104.31" width="6.52" height="5.7"/><rect class="cls-3" x="256.42" y="97.8" width="6.52" height="6.52"/><rect class="cls-3" x="249.9" y="153.19" width="6.52" height="6.52"/><rect class="cls-3" x="249.9" y="147.48" width="6.52" height="5.7"/><rect class="cls-3" x="249.9" y="140.97" width="6.52" height="6.52"/><rect class="cls-3" x="249.9" y="135.27" width="6.52" height="5.7"/><rect class="cls-3" x="249.9" y="128.75" width="6.52" height="6.52"/><rect class="cls-3" x="249.9" y="122.23" width="6.52" height="6.52"/><rect class="cls-3" x="249.9" y="116.53" width="6.52" height="5.7"/><rect class="cls-3" x="249.9" y="110.02" width="6.52" height="6.52"/><rect class="cls-3" x="249.9" y="104.31" width="6.52" height="5.7"/><rect class="cls-3" x="249.9" y="97.8" width="6.52" height="6.52"/><rect class="cls-3" x="243.39" y="153.19" width="6.52" height="6.52"/><rect class="cls-3" x="243.39" y="147.48" width="6.52" height="5.7"/><rect class="cls-3" x="243.39" y="140.97" width="6.52" height="6.52"/><rect class="cls-3" x="243.39" y="135.27" width="6.52" height="5.7"/><rect class="cls-3" x="243.39" y="128.75" width="6.52" height="6.52"/><rect class="cls-3" x="243.39" y="122.23" width="6.52" height="6.52"/><rect class="cls-3" x="243.39" y="116.53" width="6.52" height="5.7"/><rect class="cls-3" x="243.39" y="110.02" width="6.52" height="6.52"/><rect class="cls-3" x="243.39" y="104.31" width="6.52" height="5.7"/><rect class="cls-3" x="243.39" y="97.8" width="6.52" height="6.52"/><rect class="cls-3" x="236.87" y="153.19" width="6.52" height="6.52"/><rect class="cls-3" x="236.87" y="147.48" width="6.52" height="5.7"/><rect class="cls-3" x="236.87" y="140.97" width="6.52" height="6.52"/><rect class="cls-3" x="236.87" y="135.27" width="6.52" height="5.7"/><rect class="cls-3" x="236.87" y="128.75" width="6.52" height="6.52"/><rect class="cls-3" x="236.87" y="122.23" width="6.52" height="6.52"/><rect class="cls-3" x="236.87" y="116.53" width="6.52" height="5.7"/><rect class="cls-3" x="236.87" y="110.02" width="6.52" height="6.52"/><rect class="cls-3" x="236.87" y="104.31" width="6.52" height="5.7"/><rect class="cls-3" x="236.87" y="97.8" width="6.52" height="6.52"/><rect class="cls-3" x="230.35" y="153.19" width="6.52" height="6.52"/><rect class="cls-3" x="230.35" y="147.48" width="6.52" height="5.7"/><rect class="cls-3" x="230.35" y="140.97" width="6.52" height="6.52"/><rect class="cls-3" x="230.35" y="135.27" width="6.52" height="5.7"/><rect class="cls-3" x="230.35" y="128.75" width="6.52" height="6.52"/><rect class="cls-3" x="230.35" y="122.23" width="6.52" height="6.52"/><rect class="cls-3" x="230.35" y="116.53" width="6.52" height="5.7"/><rect class="cls-3" x="230.35" y="110.02" width="6.52" height="6.52"/><rect class="cls-3" x="230.35" y="104.31" width="6.52" height="5.7"/><rect class="cls-3" x="230.35" y="97.8" width="6.52" height="6.52"/><rect class="cls-3" x="223.84" y="153.19" width="6.52" height="6.52"/><rect class="cls-3" x="223.84" y="147.48" width="6.52" height="5.7"/><rect class="cls-3" x="223.84" y="140.97" width="6.52" height="6.52"/><rect class="cls-3" x="223.84" y="135.27" width="6.52" height="5.7"/><rect class="cls-3" x="223.84" y="128.75" width="6.52" height="6.52"/><rect class="cls-3" x="223.84" y="122.23" width="6.52" height="6.52"/><rect class="cls-3" x="223.84" y="116.53" width="6.52" height="5.7"/><rect class="cls-3" x="223.84" y="110.02" width="6.52" height="6.52"/><rect class="cls-3" x="223.84" y="104.31" width="6.52" height="5.7"/><rect class="cls-3" x="223.84" y="97.8" width="6.52" height="6.52"/><rect class="cls-3" x="217.32" y="153.19" width="6.52" height="6.52"/><rect class="cls-3" x="217.32" y="147.48" width="6.52" height="5.7"/><rect class="cls-3" x="217.32" y="140.97" width="6.52" height="6.52"/><rect class="cls-3" x="217.32" y="135.27" width="6.52" height="5.7"/><rect class="cls-3" x="217.32" y="128.75" width="6.52" height="6.52"/><rect class="cls-3" x="217.32" y="122.23" width="6.52" height="6.52"/><rect class="cls-3" x="217.32" y="116.53" width="6.52" height="5.7"/><rect class="cls-3" x="217.32" y="110.02" width="6.52" height="6.52"/><rect class="cls-3" x="217.32" y="104.31" width="6.52" height="5.7"/><rect class="cls-3" x="217.32" y="97.8" width="6.52" height="6.52"/><rect class="cls-3" x="210.81" y="153.19" width="6.52" height="6.52"/><rect class="cls-3" x="210.81" y="147.48" width="6.52" height="5.7"/><rect class="cls-3" x="210.81" y="140.97" width="6.52" height="6.52"/><rect class="cls-3" x="210.81" y="135.27" width="6.52" height="5.7"/><rect class="cls-3" x="210.81" y="128.75" width="6.52" height="6.52"/><rect class="cls-3" x="210.81" y="122.23" width="6.52" height="6.52"/><rect class="cls-3" x="210.81" y="116.53" width="6.52" height="5.7"/><rect class="cls-3" x="210.81" y="110.02" width="6.52" height="6.52"/><rect class="cls-3" x="210.81" y="104.31" width="6.52" height="5.7"/><rect class="cls-3" x="210.81" y="97.8" width="6.52" height="6.52"/><rect class="cls-3" x="204.29" y="153.19" width="6.52" height="6.52"/><rect class="cls-3" x="204.29" y="147.48" width="6.52" height="5.7"/><rect class="cls-3" x="204.29" y="140.97" width="6.52" height="6.52"/><rect class="cls-3" x="204.29" y="135.27" width="6.52" height="5.7"/><rect class="cls-3" x="204.29" y="128.75" width="6.52" height="6.52"/><rect class="cls-3" x="204.29" y="122.23" width="6.52" height="6.52"/><rect class="cls-3" x="204.29" y="116.53" width="6.52" height="5.7"/><rect class="cls-3" x="204.29" y="110.02" width="6.52" height="6.52"/><rect class="cls-3" x="204.29" y="104.31" width="6.52" height="5.7"/><rect class="cls-3" x="204.29" y="97.8" width="6.52" height="6.52"/><rect class="cls-3" x="197.77" y="147.48" width="6.52" height="5.7"/><rect class="cls-3" x="197.77" y="140.97" width="6.52" height="6.52"/><rect class="cls-3" x="197.77" y="135.27" width="6.52" height="5.7"/><rect class="cls-3" x="197.77" y="128.75" width="6.52" height="6.52"/><rect class="cls-3" x="197.77" y="122.23" width="6.52" height="6.52"/><rect class="cls-3" x="197.77" y="116.53" width="6.52" height="5.7"/><rect class="cls-3" x="197.77" y="110.02" width="6.52" height="6.52"/><rect class="cls-3" x="197.77" y="104.31" width="6.52" height="5.7"/><rect class="cls-3" x="197.77" y="97.8" width="6.52" height="6.52"/><rect class="cls-4" x="191.26" y="178.44" width="6.52" height="6.52"/><rect class="cls-3" x="191.26" y="147.48" width="6.52" height="5.7"/><rect class="cls-3" x="191.26" y="140.97" width="6.52" height="6.52"/><rect class="cls-3" x="191.26" y="135.27" width="6.52" height="5.7"/><rect class="cls-3" x="191.26" y="128.75" width="6.52" height="6.52"/><rect class="cls-3" x="191.26" y="122.23" width="6.52" height="6.52"/><rect class="cls-3" x="191.26" y="116.53" width="6.52" height="5.7"/><rect class="cls-3" x="191.26" y="110.02" width="6.52" height="6.52"/><rect class="cls-3" x="191.26" y="104.31" width="6.52" height="5.7"/><rect class="cls-3" x="191.26" y="97.8" width="6.52" height="6.52"/><rect class="cls-3" x="184.74" y="140.97" width="6.52" height="6.52"/><rect class="cls-3" x="184.74" y="135.27" width="6.52" height="5.7"/><rect class="cls-3" x="184.74" y="128.75" width="6.52" height="6.52"/><rect class="cls-3" x="184.74" y="122.23" width="6.52" height="6.52"/><rect class="cls-3" x="184.74" y="116.53" width="6.52" height="5.7"/><rect class="cls-3" x="184.74" y="110.02" width="6.52" height="6.52"/><rect class="cls-3" x="184.74" y="104.31" width="6.52" height="5.7"/><rect class="cls-3" x="184.74" y="97.8" width="6.52" height="6.52"/><rect class="cls-3" x="178.23" y="140.97" width="6.52" height="6.52"/><rect class="cls-3" x="178.23" y="135.27" width="6.52" height="5.7"/><rect class="cls-3" x="178.23" y="128.75" width="6.52" height="6.52"/><rect class="cls-3" x="178.23" y="122.23" width="6.52" height="6.52"/><rect class="cls-3" x="178.23" y="116.53" width="6.52" height="5.7"/><rect class="cls-3" x="178.23" y="110.02" width="6.52" height="6.52"/><rect class="cls-3" x="178.23" y="104.31" width="6.52" height="5.7"/><rect class="cls-3" x="178.23" y="97.8" width="6.52" height="6.52"/><rect class="cls-3" x="171.71" y="135.27" width="6.52" height="5.7"/><rect class="cls-3" x="171.71" y="128.75" width="6.52" height="6.52"/><rect class="cls-3" x="171.71" y="122.23" width="6.52" height="6.52"/><rect class="cls-3" x="171.71" y="116.53" width="6.52" height="5.7"/><rect class="cls-3" x="171.71" y="110.02" width="6.52" height="6.52"/><rect class="cls-3" x="171.71" y="104.31" width="6.52" height="5.7"/><rect class="cls-3" x="171.71" y="97.8" width="6.52" height="6.52"/><rect class="cls-2" x="165.19" y="271.29" width="6.52" height="6.52"/><rect class="cls-2" x="165.19" y="265.59" width="6.52" height="5.7"/><rect class="cls-2" x="165.19" y="259.07" width="6.52" height="6.52"/><rect class="cls-2" x="165.19" y="252.56" width="6.52" height="6.52"/><rect class="cls-2" x="165.19" y="246.85" width="6.52" height="5.7"/><rect class="cls-2" x="165.19" y="240.34" width="6.52" height="6.52"/><rect class="cls-2" x="165.19" y="233.82" width="6.52" height="6.52"/><rect class="cls-2" x="165.19" y="228.12" width="6.52" height="5.7"/><rect class="cls-2" x="165.19" y="221.6" width="6.52" height="6.52"/><rect class="cls-2" x="165.19" y="215.9" width="6.52" height="5.7"/><rect class="cls-2" x="165.19" y="209.39" width="6.52" height="6.52"/><rect class="cls-2" x="165.19" y="202.87" width="6.52" height="6.52"/><rect class="cls-2" x="165.19" y="197.17" width="6.52" height="5.7"/><rect class="cls-2" x="165.19" y="190.65" width="6.52" height="6.52"/><rect class="cls-2" x="165.19" y="184.95" width="6.52" height="5.7"/><rect class="cls-2" x="165.19" y="178.44" width="6.52" height="6.52"/><rect class="cls-2" x="165.19" y="171.92" width="6.52" height="6.52"/><rect class="cls-2" x="165.19" y="166.22" width="6.52" height="5.7"/><rect class="cls-2" x="165.19" y="159.7" width="6.52" height="6.52"/><rect class="cls-2" x="165.19" y="153.19" width="6.52" height="6.52"/><rect class="cls-2" x="165.19" y="147.48" width="6.52" height="5.7"/><rect class="cls-2" x="165.19" y="140.97" width="6.52" height="6.52"/><rect class="cls-2" x="165.19" y="135.27" width="6.52" height="5.7"/><rect class="cls-2" x="165.19" y="128.75" width="6.52" height="6.52"/><rect class="cls-2" x="165.19" y="122.23" width="6.52" height="6.52"/><rect class="cls-2" x="165.19" y="116.53" width="6.52" height="5.7"/><rect class="cls-2" x="165.19" y="110.02" width="6.52" height="6.52"/><rect class="cls-2" x="165.19" y="104.31" width="6.52" height="5.7"/><rect class="cls-2" x="165.19" y="97.8" width="6.52" height="6.52"/><rect class="cls-2" x="158.68" y="271.29" width="6.52" height="6.52"/><rect class="cls-2" x="158.68" y="265.59" width="6.52" height="5.7"/><rect class="cls-2" x="158.68" y="259.07" width="6.52" height="6.52"/><rect class="cls-2" x="158.68" y="252.56" width="6.52" height="6.52"/><rect class="cls-2" x="158.68" y="246.85" width="6.52" height="5.7"/><rect class="cls-2" x="158.68" y="240.34" width="6.52" height="6.52"/><rect class="cls-2" x="158.68" y="233.82" width="6.52" height="6.52"/><rect class="cls-2" x="158.68" y="228.12" width="6.52" height="5.7"/><rect class="cls-2" x="158.68" y="221.6" width="6.52" height="6.52"/><rect class="cls-2" x="158.68" y="215.9" width="6.52" height="5.7"/><rect class="cls-2" x="158.68" y="209.39" width="6.52" height="6.52"/><rect class="cls-2" x="158.68" y="202.87" width="6.52" height="6.52"/><rect class="cls-2" x="158.68" y="197.17" width="6.52" height="5.7"/><rect class="cls-2" x="158.68" y="190.65" width="6.52" height="6.52"/><rect class="cls-2" x="158.68" y="184.95" width="6.52" height="5.7"/><rect class="cls-2" x="158.68" y="178.44" width="6.52" height="6.52"/><rect class="cls-2" x="158.68" y="171.92" width="6.52" height="6.52"/><rect class="cls-2" x="158.68" y="166.22" width="6.52" height="5.7"/><rect class="cls-2" x="158.68" y="159.7" width="6.52" height="6.52"/><rect class="cls-2" x="158.68" y="153.19" width="6.52" height="6.52"/><rect class="cls-2" x="158.68" y="147.48" width="6.52" height="5.7"/><rect class="cls-2" x="158.68" y="140.97" width="6.52" height="6.52"/><rect class="cls-2" x="158.68" y="135.27" width="6.52" height="5.7"/><rect class="cls-2" x="158.68" y="128.75" width="6.52" height="6.52"/><rect class="cls-2" x="158.68" y="122.23" width="6.52" height="6.52"/><rect class="cls-2" x="158.68" y="116.53" width="6.52" height="5.7"/><rect class="cls-2" x="158.68" y="110.02" width="6.52" height="6.52"/><rect class="cls-2" x="158.68" y="104.31" width="6.52" height="5.7"/><rect class="cls-2" x="158.68" y="97.8" width="6.52" height="6.52"/></svg>