<svg id="Calque_1" data-name="Calque 1" xmlns="http://www.w3.org/2000/svg" viewBox="0 0 350 350"><defs><style>.cls-1{opacity:0.86;}.cls-2{fill:#666;}.cls-3{fill:#333;}.cls-4{fill:#696;}.cls-5{fill:#fcc;}.cls-6{fill:#363;}.cls-7{fill:#39c;}.cls-8{fill:#039;}.cls-9{fill:#cc3330;}.cls-10{fill:#9c9;}.cls-11{fill:#09c;}.cls-12{fill:#069;}.cls-13{fill:#fff;}.cls-14{fill:#c99;}.cls-15{fill:#c66;}</style></defs><g class="cls-1"><rect x="289.94" y="275.53" width="8" height="8"/><rect x="289.94" y="267.53" width="8" height="8"/><rect x="289.94" y="260.53" width="8" height="7"/><rect x="289.94" y="252.53" width="8" height="8"/><rect x="281.94" y="283.53" width="8" height="7"/><rect class="cls-2" x="281.94" y="275.53" width="8" height="8"/><rect class="cls-3" x="281.94" y="267.53" width="8" height="8"/><rect class="cls-3" x="281.94" y="260.53" width="8" height="7"/><rect class="cls-2" x="281.94" y="252.53" width="8" height="8"/><rect x="281.94" y="245.53" width="8" height="7"/><rect x="273.94" y="283.53" width="8" height="7"/><rect class="cls-3" x="273.94" y="275.53" width="8" height="8"/><rect class="cls-2" x="273.94" y="267.53" width="8" height="8"/><rect class="cls-2" x="273.94" y="260.53" width="8" height="7"/><rect class="cls-3" x="273.94" y="252.53" width="8" height="8"/><rect x="273.94" y="245.53" width="8" height="7"/><rect class="cls-4" x="273.94" y="214.53" width="8" height="8"/><rect class="cls-4" x="273.94" y="206.53" width="8" height="8"/><rect class="cls-4" x="273.94" y="199.53" width="8" height="7"/><polygon points="273.94 298.04 273.94 298.54 265.94 298.54 265.94 298.04 265.94 290.54 273.94 290.54 273.94 298.04"/><rect class="cls-3" x="265.94" y="283.53" width="8" height="7"/><rect class="cls-2" x="265.94" y="275.53" width="8" height="8"/><rect class="cls-2" x="265.94" y="267.53" width="8" height="8"/><rect class="cls-2" x="265.94" y="260.53" width="8" height="7"/><rect class="cls-2" x="265.94" y="252.53" width="8" height="8"/><rect class="cls-3" x="265.94" y="245.53" width="8" height="7"/><rect x="265.94" y="237.53" width="8" height="8"/><rect x="265.94" y="214.53" width="8" height="8"/><rect x="265.94" y="206.53" width="8" height="8"/><rect x="265.94" y="199.53" width="8" height="7"/><rect class="cls-5" x="265.94" y="138.53" width="8" height="8"/><polygon points="265.94 298.04 265.94 298.54 257.94 298.54 257.94 298.04 257.94 290.54 265.94 290.54 265.94 298.04"/><rect class="cls-2" x="257.94" y="283.53" width="8" height="7"/><rect class="cls-3" x="257.94" y="275.53" width="8" height="8"/><rect class="cls-2" x="257.94" y="267.53" width="8" height="8"/><rect class="cls-2" x="257.94" y="260.53" width="8" height="7"/><rect class="cls-3" x="257.94" y="252.53" width="8" height="8"/><rect class="cls-2" x="257.94" y="245.53" width="8" height="7"/><rect x="257.94" y="237.53" width="8" height="8"/><rect class="cls-4" x="257.94" y="222.53" width="8" height="7"/><rect class="cls-4" x="257.94" y="214.53" width="8" height="8"/><rect class="cls-4" x="257.94" y="206.53" width="8" height="8"/><rect class="cls-4" x="257.94" y="199.53" width="8" height="7"/><rect class="cls-4" x="257.94" y="191.53" width="8" height="8"/><rect class="cls-5" x="257.94" y="153.53" width="8" height="8"/><rect class="cls-5" x="257.94" y="146.53" width="8" height="7"/><rect class="cls-5" x="257.94" y="138.53" width="8" height="8"/><polygon points="257.94 298.04 257.94 298.54 249.94 298.54 249.94 298.04 249.94 290.54 257.94 290.54 257.94 298.04"/><rect class="cls-2" x="249.94" y="283.53" width="8" height="7"/><rect class="cls-2" x="249.94" y="275.53" width="8" height="8"/><rect class="cls-3" x="249.94" y="267.53" width="8" height="8"/><rect class="cls-3" x="249.94" y="260.53" width="8" height="7"/><rect class="cls-2" x="249.94" y="252.53" width="8" height="8"/><rect class="cls-2" x="249.94" y="245.53" width="8" height="7"/><rect x="249.94" y="237.53" width="8" height="8"/><rect class="cls-4" x="249.94" y="222.53" width="8" height="7"/><rect class="cls-4" x="249.94" y="214.53" width="8" height="8"/><rect class="cls-4" x="249.94" y="206.53" width="8" height="8"/><rect class="cls-4" x="249.94" y="199.53" width="8" height="7"/><rect class="cls-4" x="249.94" y="191.53" width="8" height="8"/><rect class="cls-5" x="249.94" y="153.53" width="8" height="8"/><rect class="cls-5" x="249.94" y="146.53" width="8" height="7"/><rect class="cls-5" x="249.94" y="138.53" width="8" height="8"/><polygon points="249.94 298.04 249.94 298.54 241.94 298.54 241.94 298.04 241.94 290.54 249.94 290.54 249.94 298.04"/><rect class="cls-2" x="241.94" y="283.53" width="8" height="7"/><rect class="cls-2" x="241.94" y="275.53" width="8" height="8"/><rect class="cls-2" x="241.94" y="267.53" width="8" height="8"/><rect class="cls-2" x="241.94" y="260.53" width="8" height="7"/><rect class="cls-2" x="241.94" y="252.53" width="8" height="8"/><rect class="cls-2" x="241.94" y="245.53" width="8" height="7"/><rect x="241.94" y="237.53" width="8" height="8"/><rect x="241.94" y="222.53" width="8" height="7"/><rect x="241.94" y="214.53" width="8" height="8"/><rect x="241.94" y="206.53" width="8" height="8"/><rect x="241.94" y="199.53" width="8" height="7"/><rect x="241.94" y="191.53" width="8" height="8"/><rect class="cls-5" x="241.94" y="153.53" width="8" height="8"/><rect class="cls-5" x="241.94" y="146.53" width="8" height="7"/><rect class="cls-5" x="241.94" y="138.53" width="8" height="8"/><polygon points="241.94 298.04 241.94 298.54 233.94 298.54 233.94 298.04 233.94 290.54 241.94 290.54 241.94 298.04"/><rect class="cls-2" x="233.94" y="283.53" width="8" height="7"/><rect class="cls-2" x="233.94" y="275.53" width="8" height="8"/><rect class="cls-3" x="233.94" y="267.53" width="8" height="8"/><rect class="cls-3" x="233.94" y="260.53" width="8" height="7"/><rect class="cls-2" x="233.94" y="252.53" width="8" height="8"/><rect class="cls-2" x="233.94" y="245.53" width="8" height="7"/><rect x="233.94" y="237.53" width="8" height="8"/><rect class="cls-6" x="233.94" y="214.53" width="8" height="8"/><rect class="cls-6" x="233.94" y="206.53" width="8" height="8"/><rect class="cls-6" x="233.94" y="199.53" width="8" height="7"/><rect class="cls-7" x="233.94" y="153.53" width="8" height="8"/><rect class="cls-7" x="233.94" y="146.53" width="8" height="7"/><rect class="cls-7" x="233.94" y="138.53" width="8" height="8"/><polygon points="233.94 298.04 233.94 298.54 225.94 298.54 225.94 298.04 225.94 290.54 233.94 290.54 233.94 298.04"/><rect class="cls-2" x="225.94" y="283.53" width="8" height="7"/><rect class="cls-3" x="225.94" y="275.53" width="8" height="8"/><rect class="cls-2" x="225.94" y="267.53" width="8" height="8"/><rect class="cls-2" x="225.94" y="260.53" width="8" height="7"/><rect class="cls-3" x="225.94" y="252.53" width="8" height="8"/><rect class="cls-2" x="225.94" y="245.53" width="8" height="7"/><rect x="225.94" y="237.53" width="8" height="8"/><rect class="cls-6" x="225.94" y="214.53" width="8" height="8"/><rect class="cls-6" x="225.94" y="206.53" width="8" height="8"/><rect class="cls-6" x="225.94" y="199.53" width="8" height="7"/><rect class="cls-7" x="225.94" y="153.53" width="8" height="8"/><rect class="cls-7" x="225.94" y="146.53" width="8" height="7"/><rect class="cls-7" x="225.94" y="138.53" width="8" height="8"/><polygon points="225.94 298.04 225.94 298.54 217.94 298.54 217.94 298.04 217.94 290.54 225.94 290.54 225.94 298.04"/><rect class="cls-3" x="217.94" y="283.53" width="8" height="7"/><rect class="cls-2" x="217.94" y="275.53" width="8" height="8"/><rect class="cls-2" x="217.94" y="267.53" width="8" height="8"/><rect class="cls-2" x="217.94" y="260.53" width="8" height="7"/><rect class="cls-2" x="217.94" y="252.53" width="8" height="8"/><rect class="cls-3" x="217.94" y="245.53" width="8" height="7"/><rect x="217.94" y="237.53" width="8" height="8"/><rect class="cls-6" x="217.94" y="229.53" width="8" height="8"/><rect class="cls-4" x="217.94" y="222.53" width="8" height="7"/><rect class="cls-4" x="217.94" y="214.53" width="8" height="8"/><rect class="cls-4" x="217.94" y="206.53" width="8" height="8"/><rect class="cls-4" x="217.94" y="199.53" width="8" height="7"/><rect class="cls-4" x="217.94" y="191.53" width="8" height="8"/><rect class="cls-8" x="217.94" y="161.53" width="8" height="7"/><rect class="cls-7" x="217.94" y="153.53" width="8" height="8"/><rect class="cls-8" x="217.94" y="146.53" width="8" height="7"/><rect class="cls-7" x="217.94" y="138.53" width="8" height="8"/><polygon points="217.94 298.04 217.94 298.54 209.94 298.54 209.94 298.04 209.94 290.54 217.94 290.54 217.94 298.04"/><rect class="cls-2" x="209.94" y="283.53" width="8" height="7"/><rect class="cls-3" x="209.94" y="275.53" width="8" height="8"/><rect class="cls-2" x="209.94" y="267.53" width="8" height="8"/><rect class="cls-2" x="209.94" y="260.53" width="8" height="7"/><rect class="cls-3" x="209.94" y="252.53" width="8" height="8"/><rect class="cls-2" x="209.94" y="245.53" width="8" height="7"/><rect x="209.94" y="237.53" width="8" height="8"/><rect class="cls-6" x="209.94" y="229.53" width="8" height="8"/><rect class="cls-4" x="209.94" y="222.53" width="8" height="7"/><rect class="cls-9" x="209.94" y="214.53" width="8" height="8"/><rect class="cls-9" x="209.94" y="206.53" width="8" height="8"/><rect class="cls-4" x="209.94" y="199.53" width="8" height="7"/><rect class="cls-4" x="209.94" y="191.53" width="8" height="8"/><rect class="cls-4" x="209.94" y="184.53" width="8" height="7"/><rect class="cls-4" x="209.94" y="176.53" width="8" height="8"/><rect class="cls-7" x="209.94" y="161.53" width="8" height="7"/><rect class="cls-7" x="209.94" y="153.53" width="8" height="8"/><rect class="cls-8" x="209.94" y="146.53" width="8" height="7"/><rect class="cls-7" x="209.94" y="138.53" width="8" height="8"/><polygon points="209.94 298.04 209.94 298.54 201.94 298.54 201.94 298.04 201.94 290.54 209.94 290.54 209.94 298.04"/><rect class="cls-2" x="201.94" y="283.53" width="8" height="7"/><rect class="cls-2" x="201.94" y="275.53" width="8" height="8"/><rect class="cls-3" x="201.94" y="267.53" width="8" height="8"/><rect class="cls-3" x="201.94" y="260.53" width="8" height="7"/><rect class="cls-2" x="201.94" y="252.53" width="8" height="8"/><rect class="cls-2" x="201.94" y="245.53" width="8" height="7"/><rect x="201.94" y="237.53" width="8" height="8"/><rect class="cls-6" x="201.94" y="229.53" width="8" height="8"/><rect class="cls-4" x="201.94" y="222.53" width="8" height="7"/><rect class="cls-9" x="201.94" y="214.53" width="8" height="8"/><rect class="cls-9" x="201.94" y="206.53" width="8" height="8"/><rect class="cls-4" x="201.94" y="199.53" width="8" height="7"/><rect class="cls-10" x="201.94" y="191.53" width="8" height="8"/><rect class="cls-10" x="201.94" y="184.53" width="8" height="7"/><rect class="cls-4" x="201.94" y="176.53" width="8" height="8"/><rect class="cls-4" x="201.94" y="168.53" width="8" height="8"/><rect class="cls-7" x="201.94" y="161.53" width="8" height="7"/><rect class="cls-7" x="201.94" y="153.53" width="8" height="8"/><rect class="cls-7" x="201.94" y="146.53" width="8" height="7"/><rect class="cls-8" x="201.94" y="138.53" width="8" height="8"/><polygon points="201.94 298.04 201.94 298.54 193.94 298.54 193.94 298.04 193.94 290.54 201.94 290.54 201.94 298.04"/><rect class="cls-2" x="193.94" y="283.53" width="8" height="7"/><rect class="cls-2" x="193.94" y="275.53" width="8" height="8"/><rect class="cls-2" x="193.94" y="267.53" width="8" height="8"/><rect class="cls-2" x="193.94" y="260.53" width="8" height="7"/><rect class="cls-2" x="193.94" y="252.53" width="8" height="8"/><rect class="cls-2" x="193.94" y="245.53" width="8" height="7"/><rect x="193.94" y="237.53" width="8" height="8"/><rect class="cls-6" x="193.94" y="229.53" width="8" height="8"/><rect class="cls-4" x="193.94" y="222.53" width="8" height="7"/><rect class="cls-4" x="193.94" y="214.53" width="8" height="8"/><rect class="cls-4" x="193.94" y="206.53" width="8" height="8"/><rect class="cls-10" x="193.94" y="199.53" width="8" height="7"/><rect class="cls-10" x="193.94" y="191.53" width="8" height="8"/><rect class="cls-10" x="193.94" y="184.53" width="8" height="7"/><rect class="cls-10" x="193.94" y="176.53" width="8" height="8"/><rect class="cls-4" x="193.94" y="168.53" width="8" height="8"/><rect class="cls-11" x="193.94" y="161.53" width="8" height="7"/><rect class="cls-8" x="193.94" y="153.53" width="8" height="8"/><rect class="cls-8" x="193.94" y="146.53" width="8" height="7"/><rect class="cls-11" x="193.94" y="107.53" width="8" height="8"/><rect class="cls-11" x="193.94" y="100.53" width="8" height="7"/><polygon points="193.94 298.04 193.94 298.54 185.94 298.54 185.94 298.04 185.94 290.54 193.94 290.54 193.94 298.04"/><rect class="cls-2" x="185.94" y="283.53" width="8" height="7"/><rect class="cls-2" x="185.94" y="275.53" width="8" height="8"/><rect class="cls-3" x="185.94" y="267.53" width="8" height="8"/><rect class="cls-3" x="185.94" y="260.53" width="8" height="7"/><rect class="cls-2" x="185.94" y="252.53" width="8" height="8"/><rect class="cls-2" x="185.94" y="245.53" width="8" height="7"/><rect x="185.94" y="237.53" width="8" height="8"/><rect class="cls-6" x="185.94" y="229.53" width="8" height="8"/><rect class="cls-4" x="185.94" y="222.53" width="8" height="7"/><rect class="cls-4" x="185.94" y="214.53" width="8" height="8"/><rect class="cls-4" x="185.94" y="206.53" width="8" height="8"/><rect class="cls-10" x="185.94" y="199.53" width="8" height="7"/><rect class="cls-10" x="185.94" y="191.53" width="8" height="8"/><rect class="cls-10" x="185.94" y="184.53" width="8" height="7"/><rect class="cls-10" x="185.94" y="176.53" width="8" height="8"/><rect class="cls-4" x="185.94" y="168.53" width="8" height="8"/><rect class="cls-8" x="185.94" y="161.53" width="8" height="7"/><rect class="cls-11" x="185.94" y="153.53" width="8" height="8"/><rect class="cls-8" x="185.94" y="146.53" width="8" height="7"/><rect class="cls-12" x="185.94" y="115.53" width="8" height="8"/><rect class="cls-8" x="185.94" y="107.53" width="8" height="8"/><rect class="cls-8" x="185.94" y="100.53" width="8" height="7"/><rect class="cls-11" x="185.94" y="92.53" width="8" height="8"/><polygon points="185.94 298.04 185.94 298.54 177.94 298.54 177.94 298.04 177.94 290.54 185.94 290.54 185.94 298.04"/><rect class="cls-2" x="177.94" y="283.53" width="8" height="7"/><rect class="cls-3" x="177.94" y="275.53" width="8" height="8"/><rect class="cls-2" x="177.94" y="267.53" width="8" height="8"/><rect class="cls-2" x="177.94" y="260.53" width="8" height="7"/><rect class="cls-3" x="177.94" y="252.53" width="8" height="8"/><rect class="cls-2" x="177.94" y="245.53" width="8" height="7"/><rect x="177.94" y="237.53" width="8" height="8"/><rect class="cls-6" x="177.94" y="229.53" width="8" height="8"/><rect class="cls-4" x="177.94" y="222.53" width="8" height="7"/><rect class="cls-4" x="177.94" y="214.53" width="8" height="8"/><rect class="cls-4" x="177.94" y="206.53" width="8" height="8"/><rect class="cls-4" x="177.94" y="199.53" width="8" height="7"/><rect class="cls-10" x="177.94" y="191.53" width="8" height="8"/><rect class="cls-10" x="177.94" y="184.53" width="8" height="7"/><rect class="cls-4" x="177.94" y="176.53" width="8" height="8"/><rect class="cls-4" x="177.94" y="168.53" width="8" height="8"/><rect class="cls-11" x="177.94" y="161.53" width="8" height="7"/><rect class="cls-11" x="177.94" y="153.53" width="8" height="8"/><rect class="cls-8" x="177.94" y="146.53" width="8" height="7"/><rect class="cls-5" x="177.94" y="138.53" width="8" height="8"/><rect class="cls-5" x="177.94" y="130.53" width="8" height="8"/><rect class="cls-5" x="177.94" y="123.53" width="8" height="7"/><rect class="cls-12" x="177.94" y="115.53" width="8" height="8"/><rect class="cls-11" x="177.94" y="107.53" width="8" height="8"/><rect class="cls-8" x="177.94" y="100.53" width="8" height="7"/><rect class="cls-8" x="177.94" y="92.53" width="8" height="8"/><polygon points="177.94 298.04 177.94 298.54 169.94 298.54 169.94 298.04 169.94 290.54 177.94 290.54 177.94 298.04"/><rect class="cls-3" x="169.94" y="283.53" width="8" height="7"/><rect class="cls-2" x="169.94" y="275.53" width="8" height="8"/><rect class="cls-2" x="169.94" y="267.53" width="8" height="8"/><rect class="cls-2" x="169.94" y="260.53" width="8" height="7"/><rect class="cls-2" x="169.94" y="252.53" width="8" height="8"/><rect class="cls-3" x="169.94" y="245.53" width="8" height="7"/><rect x="169.94" y="237.53" width="8" height="8"/><rect class="cls-6" x="169.94" y="229.53" width="8" height="8"/><rect class="cls-4" x="169.94" y="222.53" width="8" height="7"/><rect class="cls-4" x="169.94" y="214.53" width="8" height="8"/><rect class="cls-4" x="169.94" y="206.53" width="8" height="8"/><rect class="cls-4" x="169.94" y="199.53" width="8" height="7"/><rect class="cls-4" x="169.94" y="191.53" width="8" height="8"/><rect class="cls-4" x="169.94" y="184.53" width="8" height="7"/><rect class="cls-4" x="169.94" y="176.53" width="8" height="8"/><rect class="cls-4" x="169.94" y="168.53" width="8" height="8"/><rect class="cls-8" x="169.94" y="161.53" width="8" height="7"/><rect class="cls-11" x="169.94" y="153.53" width="8" height="8"/><rect class="cls-5" x="169.94" y="146.53" width="8" height="7"/><rect class="cls-5" x="169.94" y="138.53" width="8" height="8"/><rect x="169.94" y="130.53" width="8" height="8"/><rect class="cls-13" x="169.94" y="123.53" width="8" height="7"/><rect class="cls-12" x="169.94" y="115.53" width="8" height="8"/><rect class="cls-11" x="169.94" y="107.53" width="8" height="8"/><rect class="cls-11" x="169.94" y="100.53" width="8" height="7"/><rect class="cls-11" x="169.94" y="92.53" width="8" height="8"/><rect class="cls-11" x="169.94" y="85.53" width="8" height="7"/><polygon points="169.94 298.04 169.94 298.54 161.94 298.54 161.94 298.04 161.94 290.54 169.94 290.54 169.94 298.04"/><rect class="cls-2" x="161.94" y="283.53" width="8" height="7"/><rect class="cls-3" x="161.94" y="275.53" width="8" height="8"/><rect class="cls-2" x="161.94" y="267.53" width="8" height="8"/><rect class="cls-2" x="161.94" y="260.53" width="8" height="7"/><rect class="cls-3" x="161.94" y="252.53" width="8" height="8"/><rect class="cls-2" x="161.94" y="245.53" width="8" height="7"/><rect x="161.94" y="237.53" width="8" height="8"/><rect class="cls-6" x="161.94" y="229.53" width="8" height="8"/><rect class="cls-4" x="161.94" y="222.53" width="8" height="7"/><rect class="cls-4" x="161.94" y="214.53" width="8" height="8"/><rect class="cls-4" x="161.94" y="206.53" width="8" height="8"/><rect class="cls-4" x="161.94" y="199.53" width="8" height="7"/><rect class="cls-4" x="161.94" y="191.53" width="8" height="8"/><rect class="cls-4" x="161.94" y="184.53" width="8" height="7"/><rect class="cls-4" x="161.94" y="176.53" width="8" height="8"/><rect class="cls-4" x="161.94" y="168.53" width="8" height="8"/><rect class="cls-7" x="161.94" y="161.53" width="8" height="7"/><rect class="cls-14" x="161.94" y="153.53" width="8" height="8"/><rect class="cls-15" x="161.94" y="146.53" width="8" height="7"/><rect class="cls-5" x="161.94" y="138.53" width="8" height="8"/><rect class="cls-5" x="161.94" y="130.53" width="8" height="8"/><rect class="cls-5" x="161.94" y="123.53" width="8" height="7"/><rect class="cls-12" x="161.94" y="115.53" width="8" height="8"/><rect class="cls-11" x="161.94" y="107.53" width="8" height="8"/><rect class="cls-8" x="161.94" y="100.53" width="8" height="7"/><rect class="cls-8" x="161.94" y="92.53" width="8" height="8"/><rect class="cls-11" x="161.94" y="85.53" width="8" height="7"/><rect class="cls-11" x="161.94" y="77.53" width="8" height="8"/><polygon points="161.94 298.04 161.94 298.54 153.94 298.54 153.94 298.04 153.94 290.54 161.94 290.54 161.94 298.04"/><rect class="cls-2" x="153.94" y="283.53" width="8" height="7"/><rect class="cls-2" x="153.94" y="275.53" width="8" height="8"/><rect class="cls-3" x="153.94" y="267.53" width="8" height="8"/><rect class="cls-3" x="153.94" y="260.53" width="8" height="7"/><rect class="cls-2" x="153.94" y="252.53" width="8" height="8"/><rect class="cls-2" x="153.94" y="245.53" width="8" height="7"/><rect x="153.94" y="237.53" width="8" height="8"/><rect class="cls-6" x="153.94" y="229.53" width="8" height="8"/><rect class="cls-4" x="153.94" y="222.53" width="8" height="7"/><rect class="cls-4" x="153.94" y="214.53" width="8" height="8"/><rect class="cls-4" x="153.94" y="206.53" width="8" height="8"/><rect class="cls-4" x="153.94" y="199.53" width="8" height="7"/><rect class="cls-4" x="153.94" y="191.53" width="8" height="8"/><rect class="cls-4" x="153.94" y="184.53" width="8" height="7"/><rect class="cls-4" x="153.94" y="176.53" width="8" height="8"/><rect class="cls-4" x="153.94" y="168.53" width="8" height="8"/><rect class="cls-7" x="153.94" y="161.53" width="8" height="7"/><rect class="cls-14" x="153.94" y="153.53" width="8" height="8"/><rect class="cls-15" x="153.94" y="146.53" width="8" height="7"/><rect class="cls-5" x="153.94" y="138.53" width="8" height="8"/><rect x="153.94" y="130.53" width="8" height="8"/><rect class="cls-13" x="153.94" y="123.53" width="8" height="7"/><rect class="cls-12" x="153.94" y="115.53" width="8" height="8"/><rect class="cls-11" x="153.94" y="107.53" width="8" height="8"/><rect class="cls-11" x="153.94" y="100.53" width="8" height="7"/><rect class="cls-8" x="153.94" y="92.53" width="8" height="8"/><rect class="cls-11" x="153.94" y="85.53" width="8" height="7"/><rect class="cls-11" x="153.94" y="77.53" width="8" height="8"/><rect class="cls-11" x="153.94" y="69.53" width="8" height="8"/><polygon points="153.94 298.04 153.94 298.54 145.94 298.54 145.94 298.04 145.94 290.54 153.94 290.54 153.94 298.04"/><rect class="cls-2" x="145.94" y="283.53" width="8" height="7"/><rect class="cls-2" x="145.94" y="275.53" width="8" height="8"/><rect class="cls-2" x="145.94" y="267.53" width="8" height="8"/><rect class="cls-2" x="145.94" y="260.53" width="8" height="7"/><rect class="cls-2" x="145.94" y="252.53" width="8" height="8"/><rect class="cls-2" x="145.94" y="245.53" width="8" height="7"/><rect x="145.94" y="237.53" width="8" height="8"/><rect class="cls-6" x="145.94" y="229.53" width="8" height="8"/><rect class="cls-4" x="145.94" y="222.53" width="8" height="7"/><rect class="cls-4" x="145.94" y="214.53" width="8" height="8"/><rect class="cls-4" x="145.94" y="206.53" width="8" height="8"/><rect class="cls-4" x="145.94" y="199.53" width="8" height="7"/><rect class="cls-4" x="145.94" y="191.53" width="8" height="8"/><rect class="cls-4" x="145.94" y="184.53" width="8" height="7"/><rect class="cls-4" x="145.94" y="176.53" width="8" height="8"/><rect class="cls-4" x="145.94" y="168.53" width="8" height="8"/><rect class="cls-7" x="145.94" y="161.53" width="8" height="7"/><rect class="cls-14" x="145.94" y="153.53" width="8" height="8"/><rect class="cls-15" x="145.94" y="146.53" width="8" height="7"/><rect class="cls-5" x="145.94" y="138.53" width="8" height="8"/><rect x="145.94" y="130.53" width="8" height="8"/><rect x="145.94" y="123.53" width="8" height="7"/><rect class="cls-12" x="145.94" y="115.53" width="8" height="8"/><rect class="cls-11" x="145.94" y="107.53" width="8" height="8"/><rect class="cls-11" x="145.94" y="100.53" width="8" height="7"/><rect class="cls-8" x="145.94" y="92.53" width="8" height="8"/><rect class="cls-8" x="145.94" y="85.53" width="8" height="7"/><rect class="cls-11" x="145.94" y="77.53" width="8" height="8"/><rect class="cls-8" x="145.94" y="69.53" width="8" height="8"/><polygon points="145.94 298.04 145.94 298.54 137.94 298.54 137.94 298.04 137.94 290.54 145.94 290.54 145.94 298.04"/><rect class="cls-2" x="137.94" y="283.53" width="8" height="7"/><rect class="cls-2" x="137.94" y="275.53" width="8" height="8"/><rect class="cls-3" x="137.94" y="267.53" width="8" height="8"/><rect class="cls-3" x="137.94" y="260.53" width="8" height="7"/><rect class="cls-2" x="137.94" y="252.53" width="8" height="8"/><rect class="cls-2" x="137.94" y="245.53" width="8" height="7"/><rect x="137.94" y="237.53" width="8" height="8"/><rect class="cls-6" x="137.94" y="229.53" width="8" height="8"/><rect class="cls-4" x="137.94" y="222.53" width="8" height="7"/><rect class="cls-4" x="137.94" y="214.53" width="8" height="8"/><rect class="cls-4" x="137.94" y="206.53" width="8" height="8"/><rect class="cls-4" x="137.94" y="199.53" width="8" height="7"/><rect class="cls-4" x="137.94" y="191.53" width="8" height="8"/><rect class="cls-4" x="137.94" y="184.53" width="8" height="7"/><rect class="cls-4" x="137.94" y="176.53" width="8" height="8"/><rect class="cls-4" x="137.94" y="168.53" width="8" height="8"/><rect class="cls-7" x="137.94" y="161.53" width="8" height="7"/><rect class="cls-14" x="137.94" y="153.53" width="8" height="8"/><rect class="cls-15" x="137.94" y="146.53" width="8" height="7"/><rect class="cls-5" x="137.94" y="138.53" width="8" height="8"/><rect class="cls-5" x="137.94" y="130.53" width="8" height="8"/><rect class="cls-5" x="137.94" y="123.53" width="8" height="7"/><rect class="cls-12" x="137.94" y="115.53" width="8" height="8"/><rect class="cls-11" x="137.94" y="107.53" width="8" height="8"/><rect class="cls-11" x="137.94" y="100.53" width="8" height="7"/><rect class="cls-11" x="137.94" y="92.53" width="8" height="8"/><rect class="cls-11" x="137.94" y="85.53" width="8" height="7"/><rect class="cls-8" x="137.94" y="77.53" width="8" height="8"/><rect class="cls-8" x="137.94" y="69.53" width="8" height="8"/><polygon points="137.94 298.04 137.94 298.54 129.94 298.54 129.94 298.04 129.94 290.54 137.94 290.54 137.94 298.04"/><rect class="cls-2" x="129.94" y="283.53" width="8" height="7"/><rect class="cls-3" x="129.94" y="275.53" width="8" height="8"/><rect class="cls-2" x="129.94" y="267.53" width="8" height="8"/><rect class="cls-2" x="129.94" y="260.53" width="8" height="7"/><rect class="cls-3" x="129.94" y="252.53" width="8" height="8"/><rect class="cls-2" x="129.94" y="245.53" width="8" height="7"/><rect x="129.94" y="237.53" width="8" height="8"/><rect class="cls-6" x="129.94" y="229.53" width="8" height="8"/><rect class="cls-4" x="129.94" y="222.53" width="8" height="7"/><rect class="cls-4" x="129.94" y="214.53" width="8" height="8"/><rect class="cls-4" x="129.94" y="206.53" width="8" height="8"/><rect class="cls-4" x="129.94" y="199.53" width="8" height="7"/><rect class="cls-4" x="129.94" y="191.53" width="8" height="8"/><rect class="cls-4" x="129.94" y="184.53" width="8" height="7"/><rect class="cls-4" x="129.94" y="176.53" width="8" height="8"/><rect class="cls-4" x="129.94" y="168.53" width="8" height="8"/><rect class="cls-8" x="129.94" y="161.53" width="8" height="7"/><rect class="cls-14" x="129.94" y="153.53" width="8" height="8"/><rect class="cls-14" x="129.94" y="146.53" width="8" height="7"/><rect class="cls-5" x="129.94" y="138.53" width="8" height="8"/><rect class="cls-5" x="129.94" y="130.53" width="8" height="8"/><rect class="cls-5" x="129.94" y="123.53" width="8" height="7"/><rect class="cls-12" x="129.94" y="115.53" width="8" height="8"/><rect class="cls-11" x="129.94" y="107.53" width="8" height="8"/><rect class="cls-11" x="129.94" y="100.53" width="8" height="7"/><rect class="cls-8" x="129.94" y="92.53" width="8" height="8"/><rect class="cls-11" x="129.94" y="85.53" width="8" height="7"/><rect class="cls-11" x="129.94" y="77.53" width="8" height="8"/><rect class="cls-11" x="129.94" y="69.53" width="8" height="8"/><polygon points="129.94 298.04 129.94 298.54 121.94 298.54 121.94 298.04 121.94 290.54 129.94 290.54 129.94 298.04"/><rect class="cls-3" x="121.94" y="283.53" width="8" height="7"/><rect class="cls-2" x="121.94" y="275.53" width="8" height="8"/><rect class="cls-2" x="121.94" y="267.53" width="8" height="8"/><rect class="cls-2" x="121.94" y="260.53" width="8" height="7"/><rect class="cls-2" x="121.94" y="252.53" width="8" height="8"/><rect class="cls-3" x="121.94" y="245.53" width="8" height="7"/><rect x="121.94" y="237.53" width="8" height="8"/><rect class="cls-6" x="121.94" y="229.53" width="8" height="8"/><rect class="cls-4" x="121.94" y="222.53" width="8" height="7"/><rect class="cls-4" x="121.94" y="214.53" width="8" height="8"/><rect class="cls-4" x="121.94" y="206.53" width="8" height="8"/><rect class="cls-4" x="121.94" y="199.53" width="8" height="7"/><rect class="cls-4" x="121.94" y="191.53" width="8" height="8"/><rect class="cls-4" x="121.94" y="184.53" width="8" height="7"/><rect class="cls-4" x="121.94" y="176.53" width="8" height="8"/><rect class="cls-4" x="121.94" y="168.53" width="8" height="8"/><rect class="cls-8" x="121.94" y="161.53" width="8" height="7"/><rect class="cls-8" x="121.94" y="153.53" width="8" height="8"/><rect class="cls-14" x="121.94" y="146.53" width="8" height="7"/><rect class="cls-14" x="121.94" y="138.53" width="8" height="8"/><rect class="cls-5" x="121.94" y="130.53" width="8" height="8"/><rect class="cls-14" x="121.94" y="123.53" width="8" height="7"/><rect class="cls-11" x="121.94" y="115.53" width="8" height="8"/><rect class="cls-8" x="121.94" y="107.53" width="8" height="8"/><rect class="cls-8" x="121.94" y="100.53" width="8" height="7"/><rect class="cls-8" x="121.94" y="92.53" width="8" height="8"/><rect class="cls-8" x="121.94" y="85.53" width="8" height="7"/><rect class="cls-12" x="121.94" y="77.53" width="8" height="8"/><polygon points="121.94 298.04 121.94 298.54 113.94 298.54 113.94 298.04 113.94 290.54 121.94 290.54 121.94 298.04"/><rect class="cls-2" x="113.94" y="283.53" width="8" height="7"/><rect class="cls-3" x="113.94" y="275.53" width="8" height="8"/><rect class="cls-2" x="113.94" y="267.53" width="8" height="8"/><rect class="cls-2" x="113.94" y="260.53" width="8" height="7"/><rect class="cls-3" x="113.94" y="252.53" width="8" height="8"/><rect class="cls-2" x="113.94" y="245.53" width="8" height="7"/><rect x="113.94" y="237.53" width="8" height="8"/><rect class="cls-6" x="113.94" y="229.53" width="8" height="8"/><rect class="cls-6" x="113.94" y="222.53" width="8" height="7"/><rect class="cls-4" x="113.94" y="214.53" width="8" height="8"/><rect class="cls-4" x="113.94" y="206.53" width="8" height="8"/><rect class="cls-4" x="113.94" y="199.53" width="8" height="7"/><rect class="cls-4" x="113.94" y="191.53" width="8" height="8"/><rect class="cls-4" x="113.94" y="184.53" width="8" height="7"/><rect class="cls-4" x="113.94" y="176.53" width="8" height="8"/><rect class="cls-4" x="113.94" y="168.53" width="8" height="8"/><rect class="cls-11" x="113.94" y="161.53" width="8" height="7"/><rect class="cls-11" x="113.94" y="153.53" width="8" height="8"/><rect class="cls-11" x="113.94" y="146.53" width="8" height="7"/><rect class="cls-14" x="113.94" y="138.53" width="8" height="8"/><rect class="cls-14" x="113.94" y="130.53" width="8" height="8"/><rect class="cls-14" x="113.94" y="123.53" width="8" height="7"/><rect class="cls-11" x="113.94" y="115.53" width="8" height="8"/><rect class="cls-8" x="113.94" y="107.53" width="8" height="8"/><rect class="cls-8" x="113.94" y="100.53" width="8" height="7"/><rect class="cls-11" x="113.94" y="92.53" width="8" height="8"/><rect class="cls-12" x="113.94" y="85.53" width="8" height="7"/><rect class="cls-12" x="113.94" y="77.53" width="8" height="8"/><polygon points="113.94 298.04 113.94 298.54 105.94 298.54 105.94 298.04 105.94 290.54 113.94 290.54 113.94 298.04"/><rect class="cls-2" x="105.94" y="283.53" width="8" height="7"/><rect class="cls-2" x="105.94" y="275.53" width="8" height="8"/><rect class="cls-3" x="105.94" y="267.53" width="8" height="8"/><rect class="cls-3" x="105.94" y="260.53" width="8" height="7"/><rect class="cls-2" x="105.94" y="252.53" width="8" height="8"/><rect class="cls-2" x="105.94" y="245.53" width="8" height="7"/><rect x="105.94" y="237.53" width="8" height="8"/><rect class="cls-6" x="105.94" y="229.53" width="8" height="8"/><rect class="cls-6" x="105.94" y="222.53" width="8" height="7"/><rect class="cls-4" x="105.94" y="214.53" width="8" height="8"/><rect class="cls-4" x="105.94" y="206.53" width="8" height="8"/><rect class="cls-4" x="105.94" y="199.53" width="8" height="7"/><rect class="cls-4" x="105.94" y="191.53" width="8" height="8"/><rect class="cls-4" x="105.94" y="184.53" width="8" height="7"/><rect class="cls-4" x="105.94" y="176.53" width="8" height="8"/><rect class="cls-4" x="105.94" y="168.53" width="8" height="8"/><rect class="cls-8" x="105.94" y="161.53" width="8" height="7"/><rect class="cls-8" x="105.94" y="153.53" width="8" height="8"/><rect class="cls-11" x="105.94" y="146.53" width="8" height="7"/><rect class="cls-12" x="105.94" y="138.53" width="8" height="8"/><rect class="cls-12" x="105.94" y="130.53" width="8" height="8"/><rect class="cls-11" x="105.94" y="123.53" width="8" height="7"/><rect class="cls-11" x="105.94" y="115.53" width="8" height="8"/><rect class="cls-11" x="105.94" y="107.53" width="8" height="8"/><rect class="cls-12" x="105.94" y="100.53" width="8" height="7"/><rect class="cls-12" x="105.94" y="92.53" width="8" height="8"/><rect class="cls-12" x="105.94" y="85.53" width="8" height="7"/><polygon points="105.94 298.04 105.94 298.54 97.94 298.54 97.94 298.04 97.94 290.54 105.94 290.54 105.94 298.04"/><rect class="cls-2" x="97.94" y="283.53" width="8" height="7"/><rect class="cls-2" x="97.94" y="275.53" width="8" height="8"/><rect class="cls-2" x="97.94" y="267.53" width="8" height="8"/><rect class="cls-2" x="97.94" y="260.53" width="8" height="7"/><rect class="cls-2" x="97.94" y="252.53" width="8" height="8"/><rect class="cls-2" x="97.94" y="245.53" width="8" height="7"/><rect x="97.94" y="237.53" width="8" height="8"/><rect class="cls-6" x="97.94" y="229.53" width="8" height="8"/><rect class="cls-6" x="97.94" y="222.53" width="8" height="7"/><rect class="cls-4" x="97.94" y="214.53" width="8" height="8"/><rect class="cls-4" x="97.94" y="206.53" width="8" height="8"/><rect class="cls-5" x="97.94" y="199.53" width="8" height="7"/><rect class="cls-4" x="97.94" y="191.53" width="8" height="8"/><rect class="cls-4" x="97.94" y="184.53" width="8" height="7"/><rect class="cls-4" x="97.94" y="176.53" width="8" height="8"/><rect class="cls-11" x="97.94" y="168.53" width="8" height="8"/><rect class="cls-11" x="97.94" y="161.53" width="8" height="7"/><rect class="cls-8" x="97.94" y="153.53" width="8" height="8"/><rect class="cls-11" x="97.94" y="146.53" width="8" height="7"/><rect class="cls-12" x="97.94" y="138.53" width="8" height="8"/><rect class="cls-11" x="97.94" y="123.53" width="8" height="7"/><rect class="cls-11" x="97.94" y="115.53" width="8" height="8"/><rect class="cls-12" x="97.94" y="107.53" width="8" height="8"/><rect class="cls-12" x="97.94" y="100.53" width="8" height="7"/><polygon points="97.94 298.04 97.94 298.54 89.94 298.54 89.94 298.04 89.94 290.54 97.94 290.54 97.94 298.04"/><rect class="cls-2" x="89.94" y="283.53" width="8" height="7"/><rect class="cls-2" x="89.94" y="275.53" width="8" height="8"/><rect class="cls-3" x="89.94" y="267.53" width="8" height="8"/><rect class="cls-3" x="89.94" y="260.53" width="8" height="7"/><rect class="cls-2" x="89.94" y="252.53" width="8" height="8"/><rect class="cls-2" x="89.94" y="245.53" width="8" height="7"/><rect x="89.94" y="237.53" width="8" height="8"/><rect class="cls-6" x="89.94" y="229.53" width="8" height="8"/><rect class="cls-6" x="89.94" y="222.53" width="8" height="7"/><rect class="cls-6" x="89.94" y="214.53" width="8" height="8"/><rect class="cls-5" x="89.94" y="206.53" width="8" height="8"/><rect class="cls-5" x="89.94" y="199.53" width="8" height="7"/><rect class="cls-5" x="89.94" y="191.53" width="8" height="8"/><rect class="cls-11" x="89.94" y="184.53" width="8" height="7"/><rect class="cls-11" x="89.94" y="176.53" width="8" height="8"/><rect class="cls-11" x="89.94" y="168.53" width="8" height="8"/><rect class="cls-11" x="89.94" y="161.53" width="8" height="7"/><rect class="cls-11" x="89.94" y="153.53" width="8" height="8"/><rect class="cls-12" x="89.94" y="146.53" width="8" height="7"/><rect class="cls-12" x="89.94" y="123.53" width="8" height="7"/><rect class="cls-12" x="89.94" y="115.53" width="8" height="8"/><polygon points="89.94 298.04 89.94 298.54 81.94 298.54 81.94 298.04 81.94 290.54 89.94 290.54 89.94 298.04"/><rect class="cls-2" x="81.94" y="283.53" width="8" height="7"/><rect class="cls-3" x="81.94" y="275.53" width="8" height="8"/><rect class="cls-2" x="81.94" y="267.53" width="8" height="8"/><rect class="cls-2" x="81.94" y="260.53" width="8" height="7"/><rect class="cls-3" x="81.94" y="252.53" width="8" height="8"/><rect class="cls-2" x="81.94" y="245.53" width="8" height="7"/><rect x="81.94" y="237.53" width="8" height="8"/><rect class="cls-6" x="81.94" y="229.53" width="8" height="8"/><rect class="cls-6" x="81.94" y="222.53" width="8" height="7"/><rect class="cls-6" x="81.94" y="214.53" width="8" height="8"/><rect class="cls-5" x="81.94" y="206.53" width="8" height="8"/><rect class="cls-5" x="81.94" y="199.53" width="8" height="7"/><rect class="cls-5" x="81.94" y="191.53" width="8" height="8"/><rect class="cls-11" x="81.94" y="184.53" width="8" height="7"/><rect class="cls-11" x="81.94" y="176.53" width="8" height="8"/><rect class="cls-8" x="81.94" y="168.53" width="8" height="8"/><rect class="cls-8" x="81.94" y="161.53" width="8" height="7"/><rect class="cls-11" x="81.94" y="153.53" width="8" height="8"/><rect class="cls-12" x="81.94" y="146.53" width="8" height="7"/><polygon points="81.94 298.04 81.94 298.54 73.94 298.54 73.94 298.04 73.94 290.54 81.94 290.54 81.94 298.04"/><rect x="73.94" y="283.53" width="8" height="7"/><rect class="cls-2" x="73.94" y="275.53" width="8" height="8"/><rect class="cls-2" x="73.94" y="267.53" width="8" height="8"/><rect class="cls-2" x="73.94" y="260.53" width="8" height="7"/><rect class="cls-2" x="73.94" y="252.53" width="8" height="8"/><rect x="73.94" y="245.53" width="8" height="7"/><rect x="73.94" y="237.53" width="8" height="8"/><rect class="cls-6" x="73.94" y="229.53" width="8" height="8"/><rect class="cls-6" x="73.94" y="222.53" width="8" height="7"/><rect class="cls-6" x="73.94" y="214.53" width="8" height="8"/><rect class="cls-14" x="73.94" y="206.53" width="8" height="8"/><rect class="cls-14" x="73.94" y="199.53" width="8" height="7"/><rect class="cls-14" x="73.94" y="191.53" width="8" height="8"/><rect class="cls-11" x="73.94" y="184.53" width="8" height="7"/><rect class="cls-11" x="73.94" y="176.53" width="8" height="8"/><rect class="cls-12" x="73.94" y="168.53" width="8" height="8"/><rect class="cls-8" x="73.94" y="161.53" width="8" height="7"/><rect class="cls-12" x="73.94" y="153.53" width="8" height="8"/><rect x="65.94" y="283.53" width="8" height="7"/><rect class="cls-3" x="65.94" y="275.53" width="8" height="8"/><rect class="cls-2" x="65.94" y="267.53" width="8" height="8"/><rect class="cls-2" x="65.94" y="260.53" width="8" height="7"/><rect class="cls-3" x="65.94" y="252.53" width="8" height="8"/><rect x="65.94" y="245.53" width="8" height="7"/><rect class="cls-14" x="65.94" y="206.53" width="8" height="8"/><rect class="cls-14" x="65.94" y="199.53" width="8" height="7"/><rect class="cls-14" x="65.94" y="191.53" width="8" height="8"/><rect class="cls-12" x="65.94" y="184.53" width="8" height="7"/><rect class="cls-12" x="65.94" y="176.53" width="8" height="8"/><rect x="57.94" y="283.53" width="8" height="7"/><rect class="cls-2" x="57.94" y="275.53" width="8" height="8"/><rect class="cls-3" x="57.94" y="267.53" width="8" height="8"/><rect class="cls-3" x="57.94" y="260.53" width="8" height="7"/><rect class="cls-2" x="57.94" y="252.53" width="8" height="8"/><rect x="57.94" y="245.53" width="8" height="7"/><polygon points="57.94 275.54 57.94 283.54 50.44 283.54 49.94 283.54 49.94 275.54 50.44 275.54 57.94 275.54"/><polygon points="57.94 267.54 57.94 275.54 50.44 275.54 49.94 275.54 49.94 267.54 50.44 267.54 57.94 267.54"/><polygon points="57.94 260.54 57.94 267.54 50.44 267.54 49.94 267.54 49.94 260.54 50.44 260.54 57.94 260.54"/><polygon points="57.94 252.53 57.94 260.54 50.44 260.54 49.94 260.54 49.94 252.53 50.44 252.53 57.94 252.53"/></g></svg>