<svg id="Calque_1" data-name="Calque 1" xmlns="http://www.w3.org/2000/svg" viewBox="0 0 350 350"><defs><style>.cls-1{fill:#999;}.cls-2{fill:#666;}.cls-3{fill:#696;}.cls-4{fill:#9c9;}.cls-5{fill:#363;}.cls-6{fill:#333;}.cls-7{fill:#630;}.cls-8{fill:#963;}.cls-9{fill:#fcc;}.cls-10{fill:#09c;}.cls-11{fill:#c99;}.cls-12{fill:#39c;}.cls-13{fill:#fff;}.cls-14{fill:#069;}.cls-15{fill:#039;}.cls-16{fill:#c66;}</style></defs><rect x="276.03" y="276.91" width="7.87" height="7.87"/><rect x="276.03" y="269.04" width="7.87" height="7.87"/><rect x="276.03" y="262.16" width="7.87" height="6.88"/><rect x="276.03" y="254.29" width="7.87" height="7.87"/><rect x="276.03" y="247.41" width="7.87" height="6.88"/><rect x="268.17" y="284.77" width="7.87" height="6.88"/><rect x="268.17" y="276.91" width="7.87" height="7.87"/><rect class="cls-1" x="268.17" y="269.04" width="7.87" height="7.87"/><rect class="cls-2" x="268.17" y="262.16" width="7.87" height="6.88"/><rect class="cls-1" x="268.17" y="254.29" width="7.87" height="7.87"/><rect x="268.17" y="247.41" width="7.87" height="6.88"/><rect x="268.17" y="239.55" width="7.87" height="7.87"/><polygon points="268.17 299.03 268.17 299.52 260.3 299.52 260.3 299.03 260.3 291.65 268.17 291.65 268.17 299.03"/><rect x="260.3" y="284.77" width="7.87" height="6.88"/><rect class="cls-1" x="260.3" y="276.91" width="7.87" height="7.87"/><rect class="cls-2" x="260.3" y="269.04" width="7.87" height="7.87"/><rect class="cls-1" x="260.3" y="262.16" width="7.87" height="6.88"/><rect class="cls-2" x="260.3" y="254.29" width="7.87" height="7.87"/><rect class="cls-1" x="260.3" y="247.41" width="7.87" height="6.88"/><rect x="260.3" y="239.55" width="7.87" height="7.87"/><rect x="260.3" y="231.68" width="7.87" height="7.87"/><polygon points="260.3 299.03 260.3 299.52 252.44 299.52 252.44 299.03 252.44 291.65 260.3 291.65 260.3 299.03"/><rect class="cls-1" x="252.44" y="284.77" width="7.87" height="6.88"/><rect class="cls-2" x="252.44" y="276.91" width="7.87" height="7.87"/><rect class="cls-1" x="252.44" y="269.04" width="7.87" height="7.87"/><rect x="252.44" y="262.16" width="7.87" height="6.88"/><rect class="cls-1" x="252.44" y="254.29" width="7.87" height="7.87"/><rect class="cls-2" x="252.44" y="247.41" width="7.87" height="6.88"/><rect class="cls-1" x="252.44" y="239.55" width="7.87" height="7.87"/><rect x="252.44" y="231.68" width="7.87" height="7.87"/><polygon points="252.44 299.03 252.44 299.52 244.57 299.52 244.57 299.03 244.57 291.65 252.44 291.65 252.44 299.03"/><rect class="cls-2" x="244.57" y="284.77" width="7.87" height="6.88"/><rect class="cls-1" x="244.57" y="276.91" width="7.87" height="7.87"/><rect x="244.57" y="269.04" width="7.87" height="7.87"/><rect x="244.57" y="262.16" width="7.87" height="6.88"/><rect x="244.57" y="254.29" width="7.87" height="7.87"/><rect class="cls-1" x="244.57" y="247.41" width="7.87" height="6.88"/><rect class="cls-2" x="244.57" y="239.55" width="7.87" height="7.87"/><rect x="244.57" y="231.68" width="7.87" height="7.87"/><polygon points="244.57 299.03 244.57 299.52 236.71 299.52 236.71 299.03 236.71 291.65 244.57 291.65 244.57 299.03"/><rect class="cls-1" x="236.71" y="284.77" width="7.87" height="6.88"/><rect class="cls-2" x="236.71" y="276.91" width="7.87" height="7.87"/><rect class="cls-1" x="236.71" y="269.04" width="7.87" height="7.87"/><rect x="236.71" y="262.16" width="7.87" height="6.88"/><rect class="cls-1" x="236.71" y="254.29" width="7.87" height="7.87"/><rect class="cls-2" x="236.71" y="247.41" width="7.87" height="6.88"/><rect class="cls-1" x="236.71" y="239.55" width="7.87" height="7.87"/><rect x="236.71" y="231.68" width="7.87" height="7.87"/><polygon points="236.71 299.03 236.71 299.52 228.84 299.52 228.84 299.03 228.84 291.65 236.71 291.65 236.71 299.03"/><rect x="228.84" y="284.77" width="7.87" height="6.88"/><rect class="cls-1" x="228.84" y="276.91" width="7.87" height="7.87"/><rect class="cls-2" x="228.84" y="269.04" width="7.87" height="7.87"/><rect class="cls-1" x="228.84" y="262.16" width="7.87" height="6.88"/><rect class="cls-2" x="228.84" y="254.29" width="7.87" height="7.87"/><rect class="cls-1" x="228.84" y="247.41" width="7.87" height="6.88"/><rect x="228.84" y="239.55" width="7.87" height="7.87"/><rect x="228.84" y="231.68" width="7.87" height="7.87"/><rect x="220.98" y="284.77" width="7.87" height="6.88"/><rect x="220.98" y="276.91" width="7.87" height="7.87"/><rect class="cls-1" x="220.98" y="269.04" width="7.87" height="7.87"/><rect class="cls-2" x="220.98" y="262.16" width="7.87" height="6.88"/><rect class="cls-1" x="220.98" y="254.29" width="7.87" height="7.87"/><rect x="220.98" y="247.41" width="7.87" height="6.88"/><rect x="220.98" y="239.55" width="7.87" height="7.87"/><rect x="220.98" y="231.68" width="7.87" height="7.87"/><rect x="213.11" y="276.91" width="7.87" height="7.87"/><rect x="213.11" y="269.04" width="7.87" height="7.87"/><rect x="213.11" y="262.16" width="7.87" height="6.88"/><rect x="213.11" y="254.29" width="7.87" height="7.87"/><rect x="213.11" y="247.41" width="7.87" height="6.88"/><rect x="213.11" y="231.68" width="7.87" height="7.87"/><rect x="213.11" y="224.8" width="7.87" height="6.88"/><rect x="205.24" y="239.55" width="7.87" height="7.87"/><rect x="205.24" y="231.68" width="7.87" height="7.87"/><rect x="205.24" y="224.8" width="7.87" height="6.88"/><rect x="205.24" y="216.93" width="7.87" height="7.87"/><rect x="205.24" y="209.07" width="7.87" height="7.87"/><rect x="197.38" y="269.04" width="7.87" height="7.87"/><rect x="197.38" y="247.41" width="7.87" height="6.88"/><rect class="cls-3" x="197.38" y="239.55" width="7.87" height="7.87"/><rect class="cls-3" x="197.38" y="231.68" width="7.87" height="7.87"/><rect class="cls-4" x="197.38" y="224.8" width="7.87" height="6.88"/><rect x="197.38" y="202.18" width="7.87" height="6.88"/><rect x="189.51" y="269.04" width="7.87" height="7.87"/><rect x="189.51" y="262.16" width="7.87" height="6.88"/><rect x="189.51" y="254.29" width="7.87" height="7.87"/><rect class="cls-5" x="189.51" y="247.41" width="7.87" height="6.88"/><rect class="cls-3" x="189.51" y="239.55" width="7.87" height="7.87"/><rect class="cls-3" x="189.51" y="231.68" width="7.87" height="7.87"/><rect class="cls-3" x="189.51" y="224.8" width="7.87" height="6.88"/><rect x="189.51" y="209.07" width="7.87" height="7.87"/><rect x="181.65" y="269.04" width="7.87" height="7.87"/><rect x="181.65" y="262.16" width="7.87" height="6.88"/><rect x="181.65" y="254.29" width="7.87" height="7.87"/><rect class="cls-5" x="181.65" y="247.41" width="7.87" height="6.88"/><rect class="cls-3" x="181.65" y="239.55" width="7.87" height="7.87"/><rect class="cls-3" x="181.65" y="231.68" width="7.87" height="7.87"/><rect class="cls-3" x="181.65" y="224.8" width="7.87" height="6.88"/><rect x="181.65" y="209.07" width="7.87" height="7.87"/><rect x="173.78" y="269.04" width="7.87" height="7.87"/><rect x="173.78" y="262.16" width="7.87" height="6.88"/><rect x="173.78" y="254.29" width="7.87" height="7.87"/><rect class="cls-5" x="173.78" y="247.41" width="7.87" height="6.88"/><rect class="cls-3" x="173.78" y="239.55" width="7.87" height="7.87"/><rect class="cls-3" x="173.78" y="231.68" width="7.87" height="7.87"/><rect class="cls-3" x="173.78" y="224.8" width="7.87" height="6.88"/><rect x="173.78" y="209.07" width="7.87" height="7.87"/><rect x="165.92" y="269.04" width="7.87" height="7.87"/><rect x="165.92" y="262.16" width="7.87" height="6.88"/><rect x="165.92" y="254.29" width="7.87" height="7.87"/><rect class="cls-1" x="165.92" y="247.41" width="7.87" height="6.88"/><rect class="cls-5" x="165.92" y="239.55" width="7.87" height="7.87"/><rect class="cls-3" x="165.92" y="231.68" width="7.87" height="7.87"/><rect x="158.05" y="269.04" width="7.87" height="7.87"/><rect class="cls-2" x="158.05" y="262.16" width="7.87" height="6.88"/><rect x="158.05" y="254.29" width="7.87" height="7.87"/><rect class="cls-1" x="158.05" y="247.41" width="7.87" height="6.88"/><rect class="cls-5" x="158.05" y="239.55" width="7.87" height="7.87"/><rect class="cls-3" x="158.05" y="231.68" width="7.87" height="7.87"/><rect x="150.19" y="269.04" width="7.87" height="7.87"/><rect class="cls-6" x="150.19" y="262.16" width="7.87" height="6.88"/><rect class="cls-2" x="150.19" y="254.29" width="7.87" height="7.87"/><rect class="cls-1" x="150.19" y="247.41" width="7.87" height="6.88"/><rect class="cls-5" x="150.19" y="239.55" width="7.87" height="7.87"/><rect x="142.32" y="269.04" width="7.87" height="7.87"/><rect class="cls-6" x="142.32" y="262.16" width="7.87" height="6.88"/><rect class="cls-2" x="142.32" y="254.29" width="7.87" height="7.87"/><rect class="cls-2" x="142.32" y="247.41" width="7.87" height="6.88"/><rect x="142.32" y="239.55" width="7.87" height="7.87"/><rect x="134.45" y="269.04" width="7.87" height="7.87"/><rect class="cls-6" x="134.45" y="262.16" width="7.87" height="6.88"/><rect class="cls-2" x="134.45" y="254.29" width="7.87" height="7.87"/><rect class="cls-2" x="134.45" y="247.41" width="7.87" height="6.88"/><rect x="134.45" y="239.55" width="7.87" height="7.87"/><rect x="134.45" y="224.8" width="7.87" height="6.88"/><rect x="126.59" y="269.04" width="7.87" height="7.87"/><rect class="cls-6" x="126.59" y="262.16" width="7.87" height="6.88"/><rect class="cls-6" x="126.59" y="254.29" width="7.87" height="7.87"/><rect class="cls-2" x="126.59" y="247.41" width="7.87" height="6.88"/><rect x="126.59" y="239.55" width="7.87" height="7.87"/><rect x="126.59" y="231.68" width="7.87" height="7.87"/><rect x="126.59" y="224.8" width="7.87" height="6.88"/><rect x="118.72" y="276.91" width="7.87" height="7.87"/><rect x="118.72" y="269.04" width="7.87" height="7.87"/><rect x="118.72" y="262.16" width="7.87" height="6.88"/><rect class="cls-3" x="118.72" y="254.29" width="7.87" height="7.87"/><rect class="cls-4" x="118.72" y="247.41" width="7.87" height="6.88"/><rect x="118.72" y="224.8" width="7.87" height="6.88"/><rect x="110.86" y="284.77" width="7.87" height="6.88"/><rect x="110.86" y="276.91" width="7.87" height="7.87"/><rect x="110.86" y="269.04" width="7.87" height="7.87"/><rect class="cls-1" x="110.86" y="262.16" width="7.87" height="6.88"/><rect class="cls-3" x="110.86" y="254.29" width="7.87" height="7.87"/><rect class="cls-3" x="110.86" y="247.41" width="7.87" height="6.88"/><rect class="cls-4" x="110.86" y="239.55" width="7.87" height="7.87"/><rect x="110.86" y="231.68" width="7.87" height="7.87"/><rect x="110.86" y="224.8" width="7.87" height="6.88"/><polygon points="110.86 299.03 110.86 299.52 102.99 299.52 102.99 299.03 102.99 291.65 110.86 291.65 110.86 299.03"/><rect x="102.99" y="284.77" width="7.87" height="6.88"/><rect class="cls-2" x="102.99" y="276.91" width="7.87" height="7.87"/><rect x="102.99" y="269.04" width="7.87" height="7.87"/><rect class="cls-7" x="102.99" y="262.16" width="7.87" height="6.88"/><rect class="cls-8" x="102.99" y="254.29" width="7.87" height="7.87"/><rect class="cls-8" x="102.99" y="247.41" width="7.87" height="6.88"/><rect class="cls-8" x="102.99" y="239.55" width="7.87" height="7.87"/><rect class="cls-4" x="102.99" y="231.68" width="7.87" height="7.87"/><rect x="102.99" y="216.93" width="7.87" height="7.87"/><rect class="cls-6" x="102.99" y="209.07" width="7.87" height="7.87"/><polygon points="102.99 299.03 102.99 299.52 95.13 299.52 95.13 299.03 95.13 291.65 102.99 291.65 102.99 299.03"/><rect class="cls-2" x="95.13" y="284.77" width="7.87" height="6.88"/><rect class="cls-1" x="95.13" y="276.91" width="7.87" height="7.87"/><rect x="95.13" y="269.04" width="7.87" height="7.87"/><rect class="cls-7" x="95.13" y="262.16" width="7.87" height="6.88"/><rect class="cls-8" x="95.13" y="254.29" width="7.87" height="7.87"/><rect class="cls-7" x="95.13" y="247.41" width="7.87" height="6.88"/><rect class="cls-8" x="95.13" y="239.55" width="7.87" height="7.87"/><rect class="cls-3" x="95.13" y="231.68" width="7.87" height="7.87"/><polygon points="95.13 299.03 95.13 299.52 87.26 299.52 87.26 299.03 87.26 291.65 95.13 291.65 95.13 299.03"/><rect class="cls-1" x="87.26" y="284.77" width="7.87" height="6.88"/><rect class="cls-2" x="87.26" y="276.91" width="7.87" height="7.87"/><rect x="87.26" y="269.04" width="7.87" height="7.87"/><rect class="cls-7" x="87.26" y="262.16" width="7.87" height="6.88"/><rect class="cls-8" x="87.26" y="254.29" width="7.87" height="7.87"/><rect class="cls-7" x="87.26" y="247.41" width="7.87" height="6.88"/><rect class="cls-8" x="87.26" y="239.55" width="7.87" height="7.87"/><rect class="cls-3" x="87.26" y="231.68" width="7.87" height="7.87"/><polygon points="87.26 299.03 87.26 299.52 79.39 299.52 79.39 299.03 79.39 291.65 87.26 291.65 87.26 299.03"/><rect class="cls-2" x="79.4" y="284.77" width="7.87" height="6.88"/><rect class="cls-1" x="79.4" y="276.91" width="7.87" height="7.87"/><rect class="cls-2" x="79.4" y="269.04" width="7.87" height="7.87"/><rect class="cls-7" x="79.4" y="262.16" width="7.87" height="6.88"/><rect class="cls-7" x="79.4" y="254.29" width="7.87" height="7.87"/><rect class="cls-8" x="79.4" y="247.41" width="7.87" height="6.88"/><rect class="cls-7" x="79.4" y="239.55" width="7.87" height="7.87"/><rect class="cls-3" x="79.4" y="231.68" width="7.87" height="7.87"/><polygon points="79.39 299.03 79.39 299.52 71.53 299.52 71.53 299.03 71.53 291.65 79.39 291.65 79.39 299.03"/><rect x="71.53" y="284.77" width="7.87" height="6.88"/><rect class="cls-2" x="71.53" y="276.91" width="7.87" height="7.87"/><rect class="cls-1" x="71.53" y="269.04" width="7.87" height="7.87"/><rect class="cls-1" x="71.53" y="262.16" width="7.87" height="6.88"/><rect class="cls-5" x="71.53" y="254.29" width="7.87" height="7.87"/><rect class="cls-3" x="71.53" y="247.41" width="7.87" height="6.88"/><rect class="cls-3" x="71.53" y="239.55" width="7.87" height="7.87"/><rect class="cls-3" x="71.53" y="231.68" width="7.87" height="7.87"/><rect x="63.66" y="284.77" width="7.87" height="6.88"/><rect x="63.66" y="276.91" width="7.87" height="7.87"/><rect class="cls-2" x="63.66" y="269.04" width="7.87" height="7.87"/><rect class="cls-1" x="63.66" y="262.16" width="7.87" height="6.88"/><rect class="cls-5" x="63.66" y="254.29" width="7.87" height="7.87"/><rect class="cls-3" x="63.66" y="247.41" width="7.87" height="6.88"/><rect class="cls-3" x="63.66" y="239.55" width="7.87" height="7.87"/><polygon points="63.66 276.91 63.66 284.77 56.29 284.77 55.8 284.77 55.8 276.91 56.29 276.91 63.66 276.91"/><polygon points="63.66 269.04 63.66 276.91 56.29 276.91 55.8 276.91 55.8 269.04 56.29 269.04 63.66 269.04"/><polygon points="63.66 262.16 63.66 269.04 56.29 269.04 55.8 269.04 55.8 262.16 56.29 262.16 63.66 262.16"/><polygon class="cls-5" points="63.66 254.29 63.66 262.16 56.29 262.16 55.8 262.16 55.8 254.29 56.29 254.29 63.66 254.29"/><polygon class="cls-5" points="63.66 247.41 63.66 254.29 56.29 254.29 55.8 254.29 55.8 247.41 56.29 247.41 63.66 247.41"/><rect x="189.32" y="194.84" width="7.85" height="7.58"/><rect class="cls-9" x="189.32" y="187.38" width="7.85" height="7.46"/><rect class="cls-10" x="189.32" y="105.31" width="7.85" height="7.46"/><rect class="cls-10" x="189.32" y="97.84" width="7.85" height="7.46"/><rect x="181.46" y="247.19" width="7.85" height="7.46"/><rect class="cls-11" x="181.46" y="194.84" width="7.85" height="7.58"/><rect class="cls-9" x="181.46" y="187.38" width="7.85" height="7.46"/><rect class="cls-9" x="181.46" y="179.92" width="7.85" height="7.46"/><rect class="cls-12" x="181.46" y="172.46" width="7.85" height="7.46"/><rect class="cls-13" x="181.46" y="127.69" width="7.85" height="7.46"/><rect class="cls-13" x="181.46" y="120.23" width="7.85" height="7.46"/><rect class="cls-14" x="181.46" y="112.77" width="7.85" height="7.46"/><rect class="cls-15" x="181.46" y="105.31" width="7.85" height="7.46"/><rect class="cls-15" x="181.46" y="97.84" width="7.85" height="7.46"/><rect class="cls-10" x="181.46" y="90.39" width="7.85" height="7.45"/><rect x="173.61" y="247.19" width="7.85" height="7.46"/><rect x="173.61" y="239.73" width="7.85" height="7.46"/><rect x="173.61" y="232.26" width="7.85" height="7.46"/><rect class="cls-12" x="173.61" y="224.8" width="7.85" height="7.46"/><rect class="cls-15" x="173.61" y="217.34" width="7.85" height="7.46"/><rect x="173.61" y="209.89" width="7.85" height="7.45"/><rect class="cls-11" x="173.61" y="194.84" width="7.85" height="7.58"/><rect class="cls-11" x="173.61" y="187.38" width="7.85" height="7.46"/><rect class="cls-9" x="173.61" y="179.92" width="7.85" height="7.46"/><rect class="cls-14" x="173.61" y="172.46" width="7.85" height="7.46"/><rect class="cls-12" x="173.61" y="164.99" width="7.85" height="7.46"/><rect class="cls-12" x="173.61" y="157.54" width="7.85" height="7.45"/><rect class="cls-9" x="173.61" y="135.15" width="7.85" height="7.46"/><rect class="cls-9" x="173.61" y="127.69" width="7.85" height="7.46"/><rect class="cls-9" x="173.61" y="120.23" width="7.85" height="7.46"/><rect class="cls-14" x="173.61" y="112.77" width="7.85" height="7.46"/><rect class="cls-12" x="173.61" y="105.31" width="7.85" height="7.46"/><rect class="cls-15" x="173.61" y="97.84" width="7.85" height="7.46"/><rect class="cls-15" x="173.61" y="90.39" width="7.85" height="7.45"/><rect x="165.75" y="247.19" width="7.85" height="7.46"/><rect x="165.75" y="239.73" width="7.85" height="7.46"/><rect x="165.75" y="232.26" width="7.85" height="7.46"/><rect class="cls-12" x="165.75" y="224.8" width="7.85" height="7.46"/><rect class="cls-15" x="165.75" y="217.34" width="7.85" height="7.46"/><rect x="165.75" y="209.89" width="7.85" height="7.45"/><rect class="cls-9" x="165.75" y="202.42" width="7.85" height="7.46"/><rect class="cls-9" x="165.75" y="194.84" width="7.85" height="7.58"/><rect class="cls-9" x="165.75" y="187.38" width="7.85" height="7.46"/><rect class="cls-15" x="165.75" y="179.92" width="7.85" height="7.46"/><rect class="cls-12" x="165.75" y="172.46" width="7.85" height="7.46"/><rect class="cls-14" x="165.75" y="164.99" width="7.85" height="7.46"/><rect class="cls-10" x="165.75" y="157.54" width="7.85" height="7.45"/><rect class="cls-10" x="165.75" y="150.08" width="7.85" height="7.46"/><rect class="cls-9" x="165.75" y="142.62" width="7.85" height="7.46"/><rect class="cls-9" x="165.75" y="135.15" width="7.85" height="7.46"/><rect x="165.75" y="127.69" width="7.85" height="7.46"/><rect class="cls-13" x="165.75" y="120.23" width="7.85" height="7.46"/><rect class="cls-14" x="165.75" y="112.77" width="7.85" height="7.46"/><rect class="cls-12" x="165.75" y="105.31" width="7.85" height="7.46"/><rect class="cls-10" x="165.75" y="97.84" width="7.85" height="7.46"/><rect class="cls-10" x="165.75" y="90.39" width="7.85" height="7.45"/><rect class="cls-10" x="165.75" y="82.93" width="7.85" height="7.46"/><rect x="157.9" y="247.19" width="7.85" height="7.46"/><rect x="157.9" y="239.73" width="7.85" height="7.46"/><rect x="157.9" y="232.26" width="7.85" height="7.46"/><rect class="cls-12" x="157.9" y="224.8" width="7.85" height="7.46"/><rect class="cls-12" x="157.9" y="217.34" width="7.85" height="7.46"/><rect x="157.9" y="209.89" width="7.85" height="7.45"/><rect class="cls-11" x="157.9" y="202.42" width="7.85" height="7.46"/><rect class="cls-9" x="157.9" y="194.84" width="7.85" height="7.58"/><rect class="cls-9" x="157.9" y="187.38" width="7.85" height="7.46"/><rect class="cls-10" x="157.9" y="179.92" width="7.85" height="7.46"/><rect class="cls-12" x="157.9" y="172.46" width="7.85" height="7.46"/><rect class="cls-15" x="157.9" y="164.99" width="7.85" height="7.46"/><rect class="cls-15" x="157.9" y="157.54" width="7.85" height="7.45"/><rect class="cls-11" x="157.9" y="150.08" width="7.85" height="7.46"/><rect class="cls-16" x="157.9" y="142.62" width="7.85" height="7.46"/><rect class="cls-9" x="157.9" y="135.15" width="7.85" height="7.46"/><rect class="cls-9" x="157.9" y="127.69" width="7.85" height="7.46"/><rect class="cls-9" x="157.9" y="120.23" width="7.85" height="7.46"/><rect class="cls-14" x="157.9" y="112.77" width="7.85" height="7.46"/><rect class="cls-10" x="157.9" y="105.31" width="7.85" height="7.46"/><rect class="cls-15" x="157.9" y="97.84" width="7.85" height="7.46"/><rect class="cls-15" x="157.9" y="90.39" width="7.85" height="7.45"/><rect class="cls-10" x="157.9" y="82.93" width="7.85" height="7.46"/><rect class="cls-10" x="157.9" y="75.35" width="7.85" height="7.58"/><rect x="150.05" y="247.19" width="7.85" height="7.46"/><rect x="150.05" y="239.73" width="7.85" height="7.46"/><rect x="150.05" y="232.26" width="7.85" height="7.46"/><rect class="cls-12" x="150.05" y="224.8" width="7.85" height="7.46"/><rect class="cls-12" x="150.05" y="217.34" width="7.85" height="7.46"/><rect class="cls-15" x="150.05" y="209.89" width="7.85" height="7.45"/><rect class="cls-11" x="150.05" y="202.42" width="7.85" height="7.46"/><rect class="cls-11" x="150.05" y="194.84" width="7.85" height="7.58"/><rect class="cls-12" x="150.05" y="187.38" width="7.85" height="7.46"/><rect class="cls-10" x="150.05" y="179.92" width="7.85" height="7.46"/><rect class="cls-15" x="150.05" y="172.46" width="7.85" height="7.46"/><rect class="cls-12" x="150.05" y="164.99" width="7.85" height="7.46"/><rect class="cls-10" x="150.05" y="157.54" width="7.85" height="7.45"/><rect class="cls-11" x="150.05" y="150.08" width="7.85" height="7.46"/><rect class="cls-16" x="150.05" y="142.62" width="7.85" height="7.46"/><rect class="cls-9" x="150.05" y="135.15" width="7.85" height="7.46"/><rect x="150.05" y="127.69" width="7.85" height="7.46"/><rect class="cls-13" x="150.05" y="120.23" width="7.85" height="7.46"/><rect class="cls-14" x="150.05" y="112.77" width="7.85" height="7.46"/><rect class="cls-10" x="150.05" y="105.31" width="7.85" height="7.46"/><rect class="cls-10" x="150.05" y="97.84" width="7.85" height="7.46"/><rect class="cls-15" x="150.05" y="90.39" width="7.85" height="7.45"/><rect class="cls-10" x="150.05" y="82.93" width="7.85" height="7.46"/><rect class="cls-10" x="150.05" y="75.35" width="7.85" height="7.58"/><rect class="cls-10" x="150.05" y="67.89" width="7.85" height="7.46"/><rect x="142.19" y="239.73" width="7.85" height="7.46"/><rect class="cls-14" x="142.19" y="224.8" width="7.85" height="7.46"/><rect class="cls-12" x="142.19" y="217.34" width="7.85" height="7.46"/><rect class="cls-12" x="142.19" y="209.89" width="7.85" height="7.45"/><rect x="142.19" y="202.42" width="7.85" height="7.46"/><rect class="cls-12" x="142.19" y="194.84" width="7.85" height="7.58"/><rect class="cls-12" x="142.19" y="187.38" width="7.85" height="7.46"/><rect class="cls-10" x="142.19" y="179.92" width="7.85" height="7.46"/><rect class="cls-10" x="142.19" y="172.46" width="7.85" height="7.46"/><rect class="cls-12" x="142.19" y="164.99" width="7.85" height="7.46"/><rect class="cls-10" x="142.19" y="157.54" width="7.85" height="7.45"/><rect class="cls-11" x="142.19" y="150.08" width="7.85" height="7.46"/><rect class="cls-16" x="142.19" y="142.62" width="7.85" height="7.46"/><rect class="cls-9" x="142.19" y="135.15" width="7.85" height="7.46"/><rect x="142.19" y="127.69" width="7.85" height="7.46"/><rect x="142.19" y="120.23" width="7.85" height="7.46"/><rect class="cls-14" x="142.19" y="112.77" width="7.85" height="7.46"/><rect class="cls-10" x="142.19" y="105.31" width="7.85" height="7.46"/><rect class="cls-10" x="142.19" y="97.84" width="7.85" height="7.46"/><rect class="cls-15" x="142.19" y="90.39" width="7.85" height="7.45"/><rect class="cls-15" x="142.19" y="82.93" width="7.85" height="7.46"/><rect class="cls-10" x="142.19" y="75.35" width="7.85" height="7.58"/><rect class="cls-15" x="142.19" y="67.89" width="7.85" height="7.46"/><rect class="cls-14" x="134.3" y="217.34" width="7.89" height="7.46"/><rect class="cls-12" x="134.3" y="209.89" width="7.89" height="7.45"/><rect x="134.3" y="202.42" width="7.89" height="7.46"/><rect class="cls-12" x="134.3" y="194.84" width="7.89" height="7.58"/><rect class="cls-15" x="134.3" y="187.38" width="7.89" height="7.46"/><rect class="cls-10" x="134.3" y="179.92" width="7.89" height="7.46"/><rect class="cls-10" x="134.3" y="172.46" width="7.89" height="7.46"/><rect class="cls-10" x="134.3" y="164.99" width="7.89" height="7.46"/><rect class="cls-10" x="134.3" y="157.54" width="7.89" height="7.45"/><rect class="cls-11" x="134.3" y="150.08" width="7.89" height="7.46"/><rect class="cls-16" x="134.3" y="142.62" width="7.89" height="7.46"/><rect class="cls-9" x="134.3" y="135.15" width="7.89" height="7.46"/><rect class="cls-9" x="134.3" y="127.69" width="7.89" height="7.46"/><rect class="cls-9" x="134.3" y="120.23" width="7.89" height="7.46"/><rect class="cls-14" x="134.3" y="112.77" width="7.89" height="7.46"/><rect class="cls-10" x="134.3" y="105.31" width="7.89" height="7.46"/><rect class="cls-10" x="134.3" y="97.84" width="7.89" height="7.46"/><rect class="cls-10" x="134.3" y="90.39" width="7.89" height="7.45"/><rect class="cls-10" x="134.3" y="82.93" width="7.89" height="7.46"/><rect class="cls-15" x="134.3" y="75.35" width="7.89" height="7.58"/><rect class="cls-15" x="134.3" y="67.89" width="7.89" height="7.46"/><rect class="cls-12" x="126.44" y="217.34" width="7.85" height="7.46"/><rect class="cls-12" x="126.44" y="209.89" width="7.85" height="7.45"/><rect x="126.44" y="202.42" width="7.85" height="7.46"/><rect class="cls-12" x="126.44" y="194.84" width="7.85" height="7.58"/><rect class="cls-12" x="126.44" y="187.38" width="7.85" height="7.46"/><rect class="cls-10" x="126.44" y="179.92" width="7.85" height="7.46"/><rect class="cls-10" x="126.44" y="172.46" width="7.85" height="7.46"/><rect class="cls-15" x="126.44" y="164.99" width="7.85" height="7.46"/><rect class="cls-15" x="126.44" y="157.54" width="7.85" height="7.45"/><rect class="cls-11" x="126.44" y="150.08" width="7.85" height="7.46"/><rect class="cls-11" x="126.44" y="142.62" width="7.85" height="7.46"/><rect class="cls-9" x="126.44" y="135.15" width="7.85" height="7.46"/><rect class="cls-9" x="126.44" y="127.69" width="7.85" height="7.46"/><rect class="cls-9" x="126.44" y="120.23" width="7.85" height="7.46"/><rect class="cls-14" x="126.44" y="112.77" width="7.85" height="7.46"/><rect class="cls-10" x="126.44" y="105.31" width="7.85" height="7.46"/><rect class="cls-10" x="126.44" y="97.84" width="7.85" height="7.46"/><rect class="cls-15" x="126.44" y="90.39" width="7.85" height="7.45"/><rect class="cls-10" x="126.44" y="82.93" width="7.85" height="7.46"/><rect class="cls-10" x="126.44" y="75.35" width="7.85" height="7.58"/><rect class="cls-10" x="126.44" y="67.89" width="7.85" height="7.46"/><rect class="cls-12" x="118.59" y="217.34" width="7.85" height="7.46"/><rect class="cls-12" x="118.59" y="209.89" width="7.85" height="7.45"/><rect x="118.59" y="202.42" width="7.85" height="7.46"/><rect class="cls-12" x="118.59" y="194.84" width="7.85" height="7.58"/><rect class="cls-15" x="118.59" y="187.38" width="7.85" height="7.46"/><rect class="cls-10" x="118.59" y="179.92" width="7.85" height="7.46"/><rect class="cls-12" x="118.59" y="172.46" width="7.85" height="7.46"/><rect class="cls-12" x="118.59" y="164.99" width="7.85" height="7.46"/><rect class="cls-15" x="118.59" y="157.54" width="7.85" height="7.45"/><rect class="cls-15" x="118.59" y="150.08" width="7.85" height="7.46"/><rect class="cls-11" x="118.59" y="142.62" width="7.85" height="7.46"/><rect class="cls-11" x="118.59" y="135.15" width="7.85" height="7.46"/><rect class="cls-9" x="118.59" y="127.69" width="7.85" height="7.46"/><rect class="cls-11" x="118.59" y="120.23" width="7.85" height="7.46"/><rect class="cls-10" x="118.59" y="112.77" width="7.85" height="7.46"/><rect class="cls-15" x="118.59" y="105.31" width="7.85" height="7.46"/><rect class="cls-15" x="118.59" y="97.84" width="7.85" height="7.46"/><rect class="cls-15" x="118.59" y="90.39" width="7.85" height="7.45"/><rect class="cls-15" x="118.59" y="82.93" width="7.85" height="7.46"/><rect class="cls-14" x="118.59" y="75.35" width="7.85" height="7.58"/><rect class="cls-15" x="110.73" y="217.34" width="7.85" height="7.46"/><rect class="cls-12" x="110.73" y="209.89" width="7.85" height="7.45"/><rect x="110.73" y="202.42" width="7.85" height="7.46"/><rect class="cls-10" x="110.73" y="194.84" width="7.85" height="7.58"/><rect class="cls-15" x="110.73" y="187.38" width="7.85" height="7.46"/><rect class="cls-10" x="110.73" y="179.92" width="7.85" height="7.46"/><rect class="cls-12" x="110.73" y="172.46" width="7.85" height="7.46"/><rect class="cls-12" x="110.73" y="164.99" width="7.85" height="7.46"/><rect class="cls-12" x="110.73" y="157.54" width="7.85" height="7.45"/><rect class="cls-12" x="110.73" y="150.08" width="7.85" height="7.46"/><rect class="cls-10" x="110.73" y="142.62" width="7.85" height="7.46"/><rect class="cls-11" x="110.73" y="135.15" width="7.85" height="7.46"/><rect class="cls-11" x="110.73" y="127.69" width="7.85" height="7.46"/><rect class="cls-11" x="110.73" y="120.23" width="7.85" height="7.46"/><rect class="cls-10" x="110.73" y="112.77" width="7.85" height="7.46"/><rect class="cls-15" x="110.73" y="105.31" width="7.85" height="7.46"/><rect class="cls-15" x="110.73" y="97.84" width="7.85" height="7.46"/><rect class="cls-10" x="110.73" y="90.39" width="7.85" height="7.45"/><rect class="cls-14" x="110.73" y="82.93" width="7.85" height="7.46"/><rect class="cls-14" x="110.73" y="75.35" width="7.85" height="7.58"/><rect class="cls-15" x="102.89" y="209.89" width="7.84" height="7.45"/><rect class="cls-14" x="102.89" y="202.42" width="7.84" height="7.46"/><rect x="102.89" y="194.84" width="7.84" height="7.58"/><rect class="cls-15" x="102.89" y="187.38" width="7.84" height="7.46"/><rect class="cls-14" x="102.89" y="179.92" width="7.84" height="7.46"/><rect class="cls-14" x="102.89" y="172.46" width="7.84" height="7.46"/><rect class="cls-14" x="102.89" y="164.99" width="7.84" height="7.46"/><rect class="cls-15" x="102.89" y="157.54" width="7.84" height="7.45"/><rect class="cls-15" x="102.89" y="150.08" width="7.84" height="7.46"/><rect class="cls-12" x="102.89" y="142.62" width="7.84" height="7.46"/><rect class="cls-12" x="102.89" y="120.23" width="7.84" height="7.46"/><rect class="cls-10" x="102.89" y="112.77" width="7.84" height="7.46"/><rect class="cls-10" x="102.89" y="105.31" width="7.84" height="7.46"/><rect class="cls-14" x="102.89" y="97.84" width="7.84" height="7.46"/><rect class="cls-14" x="102.89" y="90.39" width="7.84" height="7.45"/><rect class="cls-14" x="102.89" y="82.93" width="7.84" height="7.46"/><rect class="cls-13" x="95.03" y="127.69" width="7.85" height="7.46"/><rect class="cls-12" x="95.03" y="120.23" width="7.85" height="7.46"/><rect class="cls-12" x="95.03" y="112.77" width="7.85" height="7.46"/><rect class="cls-14" x="95.03" y="105.31" width="7.85" height="7.46"/><rect class="cls-14" x="95.03" y="97.84" width="7.85" height="7.46"/><rect class="cls-14" x="87.18" y="120.23" width="7.85" height="7.46"/><rect class="cls-14" x="87.18" y="112.77" width="7.85" height="7.46"/></svg>