<svg id="Calque_1" data-name="Calque 1" xmlns="http://www.w3.org/2000/svg" viewBox="0 0 350 350"><defs><style>.cls-1{fill:gray;}.cls-2{fill:#999;}.cls-3{fill:#630;}.cls-4{fill:#666;}.cls-5{fill:#ccc;}.cls-6{fill:#963;}.cls-7{fill:#933;}.cls-8{fill:#c33;}.cls-9{fill:#900;}.cls-10{fill:#600;}.cls-11{fill:#c99;}.cls-12{fill:#facfcd;}.cls-13{fill:#c66;}.cls-14{fill:#fcc;}.cls-15{fill:#fff;}.cls-16{fill:#333;}</style></defs><rect class="cls-1" x="319" y="261.5" width="7" height="8"/><rect class="cls-1" x="319" y="246.5" width="7" height="8"/><rect class="cls-1" x="319" y="231.5" width="7" height="8"/><rect class="cls-1" x="312" y="269.5" width="7" height="7"/><rect class="cls-1" x="312" y="261.5" width="7" height="8"/><rect class="cls-1" x="312" y="254.5" width="7" height="7"/><rect class="cls-1" x="312" y="246.5" width="7" height="8"/><rect class="cls-1" x="312" y="239.5" width="7" height="7"/><rect class="cls-1" x="312" y="231.5" width="7" height="8"/><rect class="cls-1" x="312" y="224.5" width="7" height="7"/><rect class="cls-1" x="312" y="216.5" width="7" height="8"/><rect class="cls-1" x="312" y="209.5" width="7" height="7"/><rect class="cls-1" x="303" y="261.5" width="9" height="8"/><rect class="cls-1" x="303" y="254.5" width="9" height="7"/><rect class="cls-1" x="303" y="246.5" width="9" height="8"/><rect class="cls-1" x="303" y="239.5" width="9" height="7"/><rect class="cls-1" x="303" y="231.5" width="9" height="8"/><rect class="cls-1" x="303" y="224.5" width="9" height="7"/><rect class="cls-1" x="303" y="216.5" width="9" height="8"/><rect class="cls-1" x="303" y="209.5" width="9" height="7"/><rect class="cls-1" x="303" y="201.5" width="9" height="8"/><rect class="cls-1" x="303" y="194.5" width="9" height="7"/><rect class="cls-1" x="303" y="186.5" width="9" height="8"/><rect class="cls-2" x="296" y="321.5" width="7" height="7"/><rect class="cls-2" x="296" y="313.5" width="7" height="8"/><rect class="cls-2" x="296" y="306.5" width="7" height="7"/><rect class="cls-2" x="296" y="298.5" width="7" height="8"/><rect class="cls-2" x="296" y="291.5" width="7" height="7"/><rect class="cls-2" x="296" y="283.5" width="7" height="8"/><rect class="cls-2" x="296" y="276.5" width="7" height="7"/><rect class="cls-2" x="296" y="269.5" width="7" height="7"/><rect class="cls-2" x="296" y="261.5" width="7" height="8"/><rect class="cls-2" x="296" y="254.5" width="7" height="7"/><rect class="cls-1" x="296" y="239.5" width="7" height="7"/><rect class="cls-1" x="296" y="231.5" width="7" height="8"/><rect class="cls-1" x="296" y="224.5" width="7" height="7"/><rect class="cls-1" x="296" y="216.5" width="7" height="8"/><rect class="cls-1" x="296" y="209.5" width="7" height="7"/><rect class="cls-1" x="296" y="201.5" width="7" height="8"/><rect class="cls-1" x="296" y="194.5" width="7" height="7"/><rect class="cls-1" x="296" y="186.5" width="7" height="8"/><rect class="cls-1" x="296" y="179.5" width="7" height="7"/><rect class="cls-3" x="287" y="336.5" width="9" height="7"/><rect class="cls-3" x="287" y="328.5" width="9" height="8"/><rect class="cls-4" x="287" y="321.5" width="9" height="7"/><rect class="cls-4" x="287" y="313.5" width="9" height="8"/><rect class="cls-4" x="287" y="306.5" width="9" height="7"/><rect class="cls-4" x="287" y="298.5" width="9" height="8"/><rect class="cls-4" x="287" y="291.5" width="9" height="7"/><rect class="cls-4" x="287" y="283.5" width="9" height="8"/><rect class="cls-4" x="287" y="276.5" width="9" height="7"/><rect class="cls-4" x="287" y="269.5" width="9" height="7"/><rect class="cls-4" x="287" y="261.5" width="9" height="8"/><rect class="cls-2" x="287" y="254.5" width="9" height="7"/><rect class="cls-2" x="287" y="246.5" width="9" height="8"/><rect class="cls-2" x="287" y="239.5" width="9" height="7"/><rect class="cls-2" x="287" y="216.5" width="9" height="8"/><rect class="cls-2" x="287" y="209.5" width="9" height="7"/><rect class="cls-2" x="287" y="201.5" width="9" height="8"/><rect class="cls-2" x="287" y="194.5" width="9" height="7"/><rect class="cls-1" x="287" y="186.5" width="9" height="8"/><rect class="cls-1" x="287" y="179.5" width="9" height="7"/><rect class="cls-3" x="279" y="336.5" width="8" height="7"/><rect class="cls-3" x="279" y="328.5" width="8" height="8"/><rect class="cls-4" x="279" y="254.5" width="8" height="7"/><rect class="cls-2" x="279" y="246.5" width="8" height="8"/><rect class="cls-2" x="279" y="239.5" width="8" height="7"/><rect class="cls-2" x="279" y="231.5" width="8" height="8"/><rect class="cls-5" x="279" y="224.5" width="8" height="7"/><rect class="cls-5" x="279" y="216.5" width="8" height="8"/><rect class="cls-2" x="279" y="209.5" width="8" height="7"/><rect class="cls-2" x="279" y="201.5" width="8" height="8"/><rect class="cls-2" x="279" y="194.5" width="8" height="7"/><rect class="cls-2" x="279" y="186.5" width="8" height="8"/><rect class="cls-1" x="279" y="179.5" width="8" height="7"/><rect class="cls-1" x="279" y="171.5" width="8" height="8"/><rect class="cls-3" x="273" y="336.5" width="6" height="7"/><rect class="cls-2" x="273" y="283.5" width="6" height="8"/><rect class="cls-2" x="273" y="276.5" width="6" height="7"/><rect class="cls-2" x="273" y="269.5" width="6" height="7"/><rect class="cls-4" x="273" y="254.5" width="6" height="7"/><rect class="cls-4" x="273" y="246.5" width="6" height="8"/><rect class="cls-2" x="273" y="239.5" width="6" height="7"/><rect class="cls-2" x="273" y="231.5" width="6" height="8"/><rect class="cls-5" x="273" y="224.5" width="6" height="7"/><rect class="cls-5" x="273" y="216.5" width="6" height="8"/><rect class="cls-5" x="273" y="209.5" width="6" height="7"/><rect class="cls-5" x="273" y="201.5" width="6" height="8"/><rect class="cls-2" x="273" y="194.5" width="6" height="7"/><rect class="cls-2" x="273" y="186.5" width="6" height="8"/><rect class="cls-2" x="273" y="179.5" width="6" height="7"/><rect class="cls-2" x="273" y="171.5" width="6" height="8"/><rect class="cls-2" x="264" y="291.5" width="9" height="7"/><rect class="cls-2" x="264" y="283.5" width="9" height="8"/><rect class="cls-4" x="264" y="276.5" width="9" height="7"/><rect class="cls-2" x="264" y="269.5" width="9" height="7"/><rect class="cls-2" x="264" y="261.5" width="9" height="8"/><rect class="cls-2" x="264" y="254.5" width="9" height="7"/><rect class="cls-2" x="264" y="246.5" width="9" height="8"/><rect class="cls-2" x="264" y="239.5" width="9" height="7"/><rect class="cls-2" x="264" y="231.5" width="9" height="8"/><rect class="cls-5" x="264" y="224.5" width="9" height="7"/><rect class="cls-5" x="264" y="216.5" width="9" height="8"/><rect class="cls-5" x="264" y="209.5" width="9" height="7"/><rect class="cls-5" x="264" y="201.5" width="9" height="8"/><rect class="cls-2" x="264" y="194.5" width="9" height="7"/><rect class="cls-2" x="264" y="186.5" width="9" height="8"/><rect class="cls-2" x="264" y="179.5" width="9" height="7"/><rect class="cls-2" x="264" y="171.5" width="9" height="8"/><rect class="cls-2" x="264" y="163.5" width="9" height="8"/><rect class="cls-2" x="256" y="291.5" width="8" height="7"/><rect class="cls-4" x="256" y="283.5" width="8" height="8"/><rect class="cls-4" x="256" y="276.5" width="8" height="7"/><rect class="cls-4" x="256" y="269.5" width="8" height="7"/><rect class="cls-4" x="256" y="261.5" width="8" height="8"/><rect class="cls-2" x="256" y="254.5" width="8" height="7"/><rect class="cls-2" x="256" y="246.5" width="8" height="8"/><rect class="cls-2" x="256" y="239.5" width="8" height="7"/><rect class="cls-2" x="256" y="231.5" width="8" height="8"/><rect class="cls-5" x="256" y="224.5" width="8" height="7"/><rect class="cls-5" x="256" y="216.5" width="8" height="8"/><rect class="cls-5" x="256" y="209.5" width="8" height="7"/><rect class="cls-5" x="256" y="201.5" width="8" height="8"/><rect class="cls-5" x="256" y="194.5" width="8" height="7"/><rect class="cls-2" x="256" y="186.5" width="8" height="8"/><rect class="cls-2" x="256" y="179.5" width="8" height="7"/><rect class="cls-2" x="256" y="171.5" width="8" height="8"/><rect class="cls-2" x="256" y="163.5" width="8" height="8"/><rect class="cls-2" x="248" y="298.5" width="8" height="8"/><rect class="cls-4" x="248" y="291.5" width="8" height="7"/><rect class="cls-4" x="248" y="261.5" width="8" height="8"/><rect class="cls-4" x="248" y="254.5" width="8" height="7"/><rect class="cls-4" x="248" y="246.5" width="8" height="8"/><rect class="cls-2" x="248" y="239.5" width="8" height="7"/><rect class="cls-2" x="248" y="231.5" width="8" height="8"/><rect class="cls-2" x="248" y="224.5" width="8" height="7"/><rect class="cls-2" x="248" y="216.5" width="8" height="8"/><rect class="cls-2" x="248" y="209.5" width="8" height="7"/><rect class="cls-2" x="248" y="201.5" width="8" height="8"/><rect class="cls-2" x="248" y="194.5" width="8" height="7"/><rect class="cls-2" x="248" y="186.5" width="8" height="8"/><rect class="cls-2" x="248" y="179.5" width="8" height="7"/><rect class="cls-2" x="248" y="171.5" width="8" height="8"/><rect class="cls-2" x="248" y="163.5" width="8" height="8"/><rect class="cls-2" x="240" y="306.5" width="8" height="7"/><rect class="cls-4" x="240" y="298.5" width="8" height="8"/><rect class="cls-4" x="240" y="254.5" width="8" height="7"/><rect class="cls-4" x="240" y="246.5" width="8" height="8"/><rect class="cls-4" x="240" y="239.5" width="8" height="7"/><rect class="cls-4" x="240" y="231.5" width="8" height="8"/><rect class="cls-2" x="240" y="224.5" width="8" height="7"/><rect class="cls-2" x="240" y="216.5" width="8" height="8"/><rect class="cls-2" x="240" y="209.5" width="8" height="7"/><rect class="cls-2" x="240" y="201.5" width="8" height="8"/><rect class="cls-2" x="240" y="194.5" width="8" height="7"/><rect class="cls-2" x="240" y="186.5" width="8" height="8"/><rect class="cls-2" x="240" y="179.5" width="8" height="7"/><rect class="cls-2" x="240" y="171.5" width="8" height="8"/><rect class="cls-2" x="240" y="163.5" width="8" height="8"/><rect class="cls-2" x="233" y="313.5" width="7" height="8"/><rect class="cls-4" x="233" y="306.5" width="7" height="7"/><rect class="cls-4" x="233" y="246.5" width="7" height="8"/><rect class="cls-4" x="233" y="239.5" width="7" height="7"/><rect class="cls-4" x="233" y="231.5" width="7" height="8"/><rect class="cls-4" x="233" y="224.5" width="7" height="7"/><rect class="cls-2" x="233" y="216.5" width="7" height="8"/><rect class="cls-2" x="233" y="209.5" width="7" height="7"/><rect class="cls-2" x="233" y="201.5" width="7" height="8"/><rect class="cls-2" x="233" y="194.5" width="7" height="7"/><rect class="cls-2" x="233" y="186.5" width="7" height="8"/><rect class="cls-2" x="233" y="179.5" width="7" height="7"/><rect class="cls-6" x="233" y="171.5" width="7" height="8"/><rect class="cls-6" x="233" y="163.5" width="7" height="8"/><rect class="cls-6" x="233" y="156.5" width="7" height="7"/><rect class="cls-6" x="233" y="149.5" width="7" height="7"/><rect class="cls-2" x="226" y="328.5" width="7" height="8"/><rect class="cls-2" x="226" y="321.5" width="7" height="7"/><rect class="cls-4" x="226" y="313.5" width="7" height="8"/><rect class="cls-4" x="226" y="239.5" width="7" height="7"/><rect class="cls-4" x="226" y="231.5" width="7" height="8"/><rect class="cls-4" x="226" y="224.5" width="7" height="7"/><rect class="cls-4" x="226" y="216.5" width="7" height="8"/><rect class="cls-4" x="226" y="209.5" width="7" height="7"/><rect class="cls-2" x="226" y="201.5" width="7" height="8"/><rect class="cls-2" x="226" y="194.5" width="7" height="7"/><rect class="cls-2" x="226" y="186.5" width="7" height="8"/><rect class="cls-2" x="226" y="179.5" width="7" height="7"/><rect class="cls-6" x="226" y="171.5" width="7" height="8"/><rect class="cls-3" x="226" y="163.5" width="7" height="8"/><rect class="cls-3" x="226" y="156.5" width="7" height="7"/><rect class="cls-3" x="226" y="149.5" width="7" height="7"/><rect class="cls-6" x="226" y="142.5" width="7" height="7"/><rect class="cls-6" x="226" y="89.5" width="7" height="8"/><rect class="cls-6" x="226" y="82.5" width="7" height="7"/><rect class="cls-6" x="226" y="74.5" width="7" height="8"/><rect class="cls-6" x="226" y="66.5" width="7" height="8"/><rect class="cls-6" x="226" y="59.5" width="7" height="7"/><rect class="cls-3" x="217" y="336.5" width="9" height="7"/><rect class="cls-3" x="217" y="328.5" width="9" height="8"/><rect class="cls-4" x="217" y="321.5" width="9" height="7"/><rect class="cls-4" x="217" y="231.5" width="9" height="8"/><rect class="cls-4" x="217" y="224.5" width="9" height="7"/><rect class="cls-2" x="217" y="216.5" width="9" height="8"/><rect class="cls-2" x="217" y="209.5" width="9" height="7"/><rect class="cls-2" x="217" y="201.5" width="9" height="8"/><rect class="cls-2" x="217" y="194.5" width="9" height="7"/><rect class="cls-2" x="217" y="186.5" width="9" height="8"/><rect class="cls-6" x="217" y="179.5" width="9" height="7"/><rect class="cls-6" x="217" y="171.5" width="9" height="8"/><rect class="cls-3" x="217" y="163.5" width="9" height="8"/><rect class="cls-7" x="217" y="156.5" width="9" height="7"/><rect class="cls-8" x="217" y="149.5" width="9" height="7"/><rect x="217" y="142.5" width="9" height="7"/><rect class="cls-7" x="217" y="134.5" width="9" height="8"/><rect class="cls-8" x="217" y="127.5" width="9" height="7"/><rect class="cls-8" x="217" y="119.5" width="9" height="8"/><rect class="cls-8" x="217" y="112.5" width="9" height="7"/><rect class="cls-7" x="217" y="104.5" width="9" height="8"/><rect class="cls-7" x="217" y="97.5" width="9" height="7"/><rect class="cls-3" x="217" y="89.5" width="9" height="8"/><rect class="cls-6" x="217" y="82.5" width="9" height="7"/><rect class="cls-6" x="217" y="74.5" width="9" height="8"/><rect class="cls-6" x="217" y="66.5" width="9" height="8"/><rect class="cls-6" x="217" y="59.5" width="9" height="7"/><rect class="cls-6" x="217" y="51.5" width="9" height="8"/><rect class="cls-6" x="217" y="44.5" width="9" height="7"/><rect class="cls-6" x="217" y="36.5" width="9" height="8"/><rect class="cls-3" x="209" y="336.5" width="8" height="7"/><rect class="cls-3" x="209" y="328.5" width="8" height="8"/><rect class="cls-4" x="209" y="231.5" width="8" height="8"/><rect class="cls-5" x="209" y="224.5" width="8" height="7"/><rect class="cls-2" x="209" y="216.5" width="8" height="8"/><rect class="cls-2" x="209" y="209.5" width="8" height="7"/><rect class="cls-2" x="209" y="201.5" width="8" height="8"/><rect class="cls-2" x="209" y="194.5" width="8" height="7"/><rect class="cls-2" x="209" y="186.5" width="8" height="8"/><rect class="cls-3" x="209" y="179.5" width="8" height="7"/><rect class="cls-6" x="209" y="171.5" width="8" height="8"/><rect class="cls-7" x="209" y="163.5" width="8" height="8"/><rect class="cls-8" x="209" y="156.5" width="8" height="7"/><rect x="209" y="149.5" width="8" height="7"/><rect class="cls-8" x="209" y="142.5" width="8" height="7"/><rect class="cls-7" x="209" y="134.5" width="8" height="8"/><rect class="cls-8" x="209" y="127.5" width="8" height="7"/><rect class="cls-8" x="209" y="119.5" width="8" height="8"/><rect class="cls-8" x="209" y="112.5" width="8" height="7"/><rect class="cls-8" x="209" y="104.5" width="8" height="8"/><rect class="cls-9" x="209" y="97.5" width="8" height="7"/><rect class="cls-3" x="209" y="89.5" width="8" height="8"/><rect class="cls-3" x="209" y="82.5" width="8" height="7"/><rect class="cls-6" x="209" y="74.5" width="8" height="8"/><rect class="cls-6" x="209" y="66.5" width="8" height="8"/><rect class="cls-6" x="209" y="59.5" width="8" height="7"/><rect class="cls-6" x="209" y="51.5" width="8" height="8"/><rect class="cls-6" x="209" y="44.5" width="8" height="7"/><rect class="cls-6" x="209" y="36.5" width="8" height="8"/><rect class="cls-6" x="209" y="29.5" width="8" height="7"/><rect class="cls-6" x="209" y="22.5" width="8" height="7"/><rect class="cls-3" x="201" y="336.5" width="8" height="7"/><rect class="cls-2" x="201" y="231.5" width="8" height="8"/><rect class="cls-2" x="201" y="224.5" width="8" height="7"/><rect class="cls-5" x="201" y="216.5" width="8" height="8"/><rect class="cls-5" x="201" y="209.5" width="8" height="7"/><rect class="cls-5" x="201" y="201.5" width="8" height="8"/><rect class="cls-5" x="201" y="194.5" width="8" height="7"/><rect class="cls-2" x="201" y="186.5" width="8" height="8"/><rect class="cls-3" x="201" y="179.5" width="8" height="7"/><rect class="cls-6" x="201" y="171.5" width="8" height="8"/><rect class="cls-8" x="201" y="163.5" width="8" height="8"/><rect class="cls-8" x="201" y="156.5" width="8" height="7"/><rect x="201" y="149.5" width="8" height="7"/><rect class="cls-8" x="201" y="142.5" width="8" height="7"/><rect class="cls-7" x="201" y="134.5" width="8" height="8"/><rect class="cls-8" x="201" y="127.5" width="8" height="7"/><rect class="cls-8" x="201" y="119.5" width="8" height="8"/><rect class="cls-9" x="201" y="112.5" width="8" height="7"/><rect class="cls-10" x="201" y="104.5" width="8" height="8"/><rect class="cls-10" x="201" y="97.5" width="8" height="7"/><rect class="cls-3" x="201" y="89.5" width="8" height="8"/><rect class="cls-3" x="201" y="82.5" width="8" height="7"/><rect class="cls-3" x="201" y="74.5" width="8" height="8"/><rect class="cls-3" x="201" y="66.5" width="8" height="8"/><rect class="cls-3" x="201" y="59.5" width="8" height="7"/><rect class="cls-6" x="201" y="51.5" width="8" height="8"/><rect class="cls-6" x="201" y="44.5" width="8" height="7"/><rect class="cls-6" x="201" y="36.5" width="8" height="8"/><rect class="cls-6" x="201" y="29.5" width="8" height="7"/><rect class="cls-6" x="201" y="22.5" width="8" height="7"/><rect class="cls-4" x="194" y="239.5" width="7" height="7"/><rect class="cls-2" x="194" y="231.5" width="7" height="8"/><rect class="cls-2" x="194" y="224.5" width="7" height="7"/><rect class="cls-5" x="194" y="216.5" width="7" height="8"/><rect class="cls-5" x="194" y="209.5" width="7" height="7"/><rect class="cls-5" x="194" y="201.5" width="7" height="8"/><rect class="cls-5" x="194" y="194.5" width="7" height="7"/><rect class="cls-5" x="194" y="186.5" width="7" height="8"/><rect class="cls-3" x="194" y="179.5" width="7" height="7"/><rect class="cls-6" x="194" y="171.5" width="7" height="8"/><rect class="cls-8" x="194" y="163.5" width="7" height="8"/><rect class="cls-8" x="194" y="156.5" width="7" height="7"/><rect x="194" y="149.5" width="7" height="7"/><rect class="cls-9" x="194" y="142.5" width="7" height="7"/><rect class="cls-9" x="194" y="134.5" width="7" height="8"/><rect class="cls-9" x="194" y="127.5" width="7" height="7"/><rect class="cls-9" x="194" y="119.5" width="7" height="8"/><rect class="cls-9" x="194" y="112.5" width="7" height="7"/><rect class="cls-7" x="194" y="104.5" width="7" height="8"/><rect class="cls-11" x="194" y="97.5" width="7" height="7"/><rect class="cls-11" x="194" y="89.5" width="7" height="8"/><rect class="cls-11" x="194" y="82.5" width="7" height="7"/><rect class="cls-12" x="194" y="74.5" width="7" height="8"/><rect class="cls-12" x="194" y="66.5" width="7" height="8"/><rect class="cls-7" x="194" y="59.5" width="7" height="7"/><rect class="cls-7" x="194" y="51.5" width="7" height="8"/><rect class="cls-7" x="194" y="44.5" width="7" height="7"/><rect class="cls-6" x="194" y="36.5" width="7" height="8"/><rect class="cls-6" x="194" y="29.5" width="7" height="7"/><rect class="cls-6" x="194" y="22.5" width="7" height="7"/><rect class="cls-6" x="194" y="15.5" width="7" height="7"/><rect class="cls-4" x="185" y="239.5" width="9" height="7"/><rect class="cls-2" x="185" y="231.5" width="9" height="8"/><rect class="cls-2" x="185" y="224.5" width="9" height="7"/><rect class="cls-2" x="185" y="216.5" width="9" height="8"/><rect class="cls-5" x="185" y="209.5" width="9" height="7"/><rect class="cls-5" x="185" y="201.5" width="9" height="8"/><rect class="cls-2" x="185" y="194.5" width="9" height="7"/><rect class="cls-2" x="185" y="186.5" width="9" height="8"/><rect class="cls-3" x="185" y="179.5" width="9" height="7"/><rect class="cls-3" x="185" y="171.5" width="9" height="8"/><rect class="cls-8" x="185" y="163.5" width="9" height="8"/><rect class="cls-8" x="185" y="156.5" width="9" height="7"/><rect x="185" y="149.5" width="9" height="7"/><rect class="cls-9" x="185" y="142.5" width="9" height="7"/><rect class="cls-9" x="185" y="134.5" width="9" height="8"/><rect class="cls-9" x="185" y="127.5" width="9" height="7"/><rect class="cls-8" x="185" y="119.5" width="9" height="8"/><rect class="cls-8" x="185" y="112.5" width="9" height="7"/><rect class="cls-8" x="185" y="104.5" width="9" height="8"/><rect class="cls-11" x="185" y="97.5" width="9" height="7"/><rect class="cls-13" x="185" y="89.5" width="9" height="8"/><rect class="cls-11" x="185" y="82.5" width="9" height="7"/><rect class="cls-12" x="185" y="74.5" width="9" height="8"/><rect class="cls-12" x="185" y="66.5" width="9" height="8"/><rect class="cls-7" x="185" y="59.5" width="9" height="7"/><rect class="cls-7" x="185" y="51.5" width="9" height="8"/><rect class="cls-7" x="185" y="44.5" width="9" height="7"/><rect class="cls-6" x="185" y="36.5" width="9" height="8"/><rect class="cls-6" x="185" y="29.5" width="9" height="7"/><rect class="cls-6" x="185" y="22.5" width="9" height="7"/><rect class="cls-6" x="185" y="15.5" width="9" height="7"/><rect class="cls-4" x="178" y="246.5" width="7" height="8"/><rect class="cls-4" x="178" y="239.5" width="7" height="7"/><rect class="cls-2" x="178" y="231.5" width="7" height="8"/><rect class="cls-2" x="178" y="224.5" width="7" height="7"/><rect class="cls-2" x="178" y="216.5" width="7" height="8"/><rect class="cls-2" x="178" y="209.5" width="7" height="7"/><rect class="cls-2" x="178" y="201.5" width="7" height="8"/><rect class="cls-2" x="178" y="194.5" width="7" height="7"/><rect x="178" y="186.5" width="7" height="8"/><rect class="cls-3" x="178" y="179.5" width="7" height="7"/><rect class="cls-8" x="178" y="171.5" width="7" height="8"/><rect class="cls-8" x="178" y="163.5" width="7" height="8"/><rect class="cls-8" x="178" y="156.5" width="7" height="7"/><rect x="178" y="149.5" width="7" height="7"/><rect class="cls-9" x="178" y="142.5" width="7" height="7"/><rect class="cls-9" x="178" y="134.5" width="7" height="8"/><rect class="cls-9" x="178" y="127.5" width="7" height="7"/><rect class="cls-9" x="178" y="119.5" width="7" height="8"/><rect class="cls-9" x="178" y="112.5" width="7" height="7"/><rect class="cls-9" x="178" y="104.5" width="7" height="8"/><rect class="cls-11" x="178" y="97.5" width="7" height="7"/><rect class="cls-13" x="178" y="89.5" width="7" height="8"/><rect class="cls-11" x="178" y="82.5" width="7" height="7"/><rect x="178" y="74.5" width="7" height="8"/><rect x="178" y="66.5" width="7" height="8"/><rect class="cls-10" x="178" y="59.5" width="7" height="7"/><rect class="cls-7" x="178" y="51.5" width="7" height="8"/><rect class="cls-7" x="178" y="44.5" width="7" height="7"/><rect class="cls-6" x="178" y="36.5" width="7" height="8"/><rect class="cls-6" x="178" y="29.5" width="7" height="7"/><rect class="cls-6" x="178" y="22.5" width="7" height="7"/><rect class="cls-6" x="178" y="15.5" width="7" height="7"/><rect class="cls-4" x="170" y="246.5" width="8" height="8"/><rect class="cls-4" x="170" y="239.5" width="8" height="7"/><rect class="cls-2" x="170" y="231.5" width="8" height="8"/><rect class="cls-2" x="170" y="224.5" width="8" height="7"/><rect class="cls-2" x="170" y="216.5" width="8" height="8"/><rect class="cls-2" x="170" y="209.5" width="8" height="7"/><rect class="cls-2" x="170" y="201.5" width="8" height="8"/><rect x="170" y="194.5" width="8" height="7"/><rect x="170" y="186.5" width="8" height="8"/><rect x="170" y="179.5" width="8" height="7"/><rect class="cls-8" x="170" y="171.5" width="8" height="8"/><rect class="cls-8" x="170" y="163.5" width="8" height="8"/><rect class="cls-7" x="170" y="156.5" width="8" height="7"/><rect class="cls-14" x="170" y="149.5" width="8" height="7"/><rect class="cls-14" x="170" y="142.5" width="8" height="7"/><rect class="cls-9" x="170" y="134.5" width="8" height="8"/><rect class="cls-9" x="170" y="127.5" width="8" height="7"/><rect class="cls-10" x="170" y="119.5" width="8" height="8"/><rect class="cls-9" x="170" y="112.5" width="8" height="7"/><rect class="cls-9" x="170" y="104.5" width="8" height="8"/><rect class="cls-11" x="170" y="97.5" width="8" height="7"/><rect class="cls-13" x="170" y="89.5" width="8" height="8"/><rect class="cls-11" x="170" y="82.5" width="8" height="7"/><rect x="170" y="74.5" width="8" height="8"/><rect class="cls-15" x="170" y="66.5" width="8" height="8"/><rect class="cls-10" x="170" y="59.5" width="8" height="7"/><rect class="cls-7" x="170" y="51.5" width="8" height="8"/><rect class="cls-7" x="170" y="44.5" width="8" height="7"/><rect class="cls-6" x="170" y="36.5" width="8" height="8"/><rect class="cls-6" x="170" y="29.5" width="8" height="7"/><rect class="cls-6" x="170" y="22.5" width="8" height="7"/><rect class="cls-3" x="170" y="15.5" width="8" height="7"/><rect class="cls-6" x="162" y="246.5" width="8" height="8"/><rect class="cls-6" x="162" y="239.5" width="8" height="7"/><rect class="cls-6" x="162" y="231.5" width="8" height="8"/><rect class="cls-6" x="162" y="224.5" width="8" height="7"/><rect class="cls-6" x="162" y="216.5" width="8" height="8"/><rect class="cls-6" x="162" y="209.5" width="8" height="7"/><rect class="cls-6" x="162" y="201.5" width="8" height="8"/><rect x="162" y="194.5" width="8" height="7"/><rect x="162" y="186.5" width="8" height="8"/><rect x="162" y="179.5" width="8" height="7"/><rect class="cls-8" x="162" y="171.5" width="8" height="8"/><rect class="cls-8" x="162" y="163.5" width="8" height="8"/><rect class="cls-8" x="162" y="156.5" width="8" height="7"/><rect class="cls-11" x="162" y="149.5" width="8" height="7"/><rect class="cls-14" x="162" y="142.5" width="8" height="7"/><rect class="cls-14" x="162" y="134.5" width="8" height="8"/><rect class="cls-8" x="162" y="127.5" width="8" height="7"/><rect class="cls-9" x="162" y="119.5" width="8" height="8"/><rect class="cls-10" x="162" y="112.5" width="8" height="7"/><rect class="cls-10" x="162" y="104.5" width="8" height="8"/><rect class="cls-11" x="162" y="97.5" width="8" height="7"/><rect class="cls-13" x="162" y="89.5" width="8" height="8"/><rect class="cls-11" x="162" y="82.5" width="8" height="7"/><rect class="cls-12" x="162" y="74.5" width="8" height="8"/><rect class="cls-12" x="162" y="66.5" width="8" height="8"/><rect class="cls-10" x="162" y="59.5" width="8" height="7"/><rect class="cls-7" x="162" y="51.5" width="8" height="8"/><rect class="cls-7" x="162" y="44.5" width="8" height="7"/><rect class="cls-6" x="162" y="36.5" width="8" height="8"/><rect class="cls-6" x="162" y="29.5" width="8" height="7"/><rect class="cls-3" x="162" y="22.5" width="8" height="7"/><rect class="cls-6" x="154" y="246.5" width="8" height="8"/><rect class="cls-6" x="154" y="239.5" width="8" height="7"/><rect class="cls-6" x="154" y="231.5" width="8" height="8"/><rect class="cls-6" x="154" y="224.5" width="8" height="7"/><rect class="cls-6" x="154" y="216.5" width="8" height="8"/><rect class="cls-6" x="154" y="209.5" width="8" height="7"/><rect class="cls-16" x="154" y="201.5" width="8" height="8"/><rect x="154" y="194.5" width="8" height="7"/><rect x="154" y="186.5" width="8" height="8"/><rect x="154" y="179.5" width="8" height="7"/><rect class="cls-9" x="154" y="171.5" width="8" height="8"/><rect class="cls-10" x="154" y="163.5" width="8" height="8"/><rect class="cls-9" x="154" y="156.5" width="8" height="7"/><rect class="cls-11" x="154" y="149.5" width="8" height="7"/><rect class="cls-11" x="154" y="142.5" width="8" height="7"/><rect class="cls-11" x="154" y="134.5" width="8" height="8"/><rect class="cls-7" x="154" y="127.5" width="8" height="7"/><rect class="cls-8" x="154" y="119.5" width="8" height="8"/><rect class="cls-8" x="154" y="112.5" width="8" height="7"/><rect class="cls-9" x="154" y="104.5" width="8" height="8"/><rect class="cls-9" x="154" y="97.5" width="8" height="7"/><rect class="cls-11" x="154" y="89.5" width="8" height="8"/><rect class="cls-11" x="154" y="82.5" width="8" height="7"/><rect x="154" y="74.5" width="8" height="8"/><rect class="cls-15" x="154" y="66.5" width="8" height="8"/><rect class="cls-10" x="154" y="59.5" width="8" height="7"/><rect class="cls-10" x="154" y="51.5" width="8" height="8"/><rect class="cls-7" x="154" y="44.5" width="8" height="7"/><rect class="cls-6" x="154" y="36.5" width="8" height="8"/><rect class="cls-3" x="154" y="29.5" width="8" height="7"/><rect class="cls-4" x="146" y="246.5" width="8" height="8"/><rect class="cls-4" x="146" y="239.5" width="8" height="7"/><rect class="cls-4" x="146" y="231.5" width="8" height="8"/><rect class="cls-5" x="146" y="224.5" width="8" height="7"/><rect class="cls-5" x="146" y="216.5" width="8" height="8"/><rect class="cls-2" x="146" y="209.5" width="8" height="7"/><rect class="cls-16" x="146" y="201.5" width="8" height="8"/><rect class="cls-16" x="146" y="194.5" width="8" height="7"/><rect class="cls-16" x="146" y="186.5" width="8" height="8"/><rect class="cls-16" x="146" y="179.5" width="8" height="7"/><rect class="cls-9" x="146" y="171.5" width="8" height="8"/><rect class="cls-10" x="146" y="163.5" width="8" height="8"/><rect class="cls-9" x="146" y="156.5" width="8" height="7"/><rect class="cls-14" x="146" y="142.5" width="8" height="7"/><rect class="cls-14" x="146" y="134.5" width="8" height="8"/><rect class="cls-14" x="146" y="127.5" width="8" height="7"/><rect class="cls-9" x="146" y="119.5" width="8" height="8"/><rect class="cls-9" x="146" y="112.5" width="8" height="7"/><rect class="cls-9" x="146" y="104.5" width="8" height="8"/><rect class="cls-11" x="146" y="82.5" width="8" height="7"/><rect class="cls-11" x="146" y="74.5" width="8" height="8"/><rect class="cls-11" x="146" y="66.5" width="8" height="8"/><rect class="cls-10" x="146" y="59.5" width="8" height="7"/><rect class="cls-10" x="146" y="51.5" width="8" height="8"/><rect class="cls-10" x="146" y="44.5" width="8" height="7"/><rect class="cls-6" x="146" y="36.5" width="8" height="8"/><rect class="cls-3" x="146" y="29.5" width="8" height="7"/><rect class="cls-4" x="139" y="246.5" width="7" height="8"/><rect class="cls-1" x="139" y="239.5" width="7" height="7"/><rect class="cls-1" x="139" y="231.5" width="7" height="8"/><rect class="cls-5" x="139" y="224.5" width="7" height="7"/><rect class="cls-5" x="139" y="216.5" width="7" height="8"/><rect class="cls-2" x="139" y="209.5" width="7" height="7"/><rect class="cls-16" x="139" y="201.5" width="7" height="8"/><rect x="139" y="194.5" width="7" height="7"/><rect class="cls-2" x="139" y="186.5" width="7" height="8"/><rect class="cls-2" x="139" y="179.5" width="7" height="7"/><rect class="cls-2" x="139" y="171.5" width="7" height="8"/><rect class="cls-2" x="139" y="163.5" width="7" height="8"/><rect class="cls-2" x="139" y="156.5" width="7" height="7"/><rect class="cls-11" x="139" y="142.5" width="7" height="7"/><rect class="cls-11" x="139" y="134.5" width="7" height="8"/><rect class="cls-14" x="139" y="127.5" width="7" height="7"/><rect class="cls-9" x="139" y="119.5" width="7" height="8"/><rect class="cls-6" x="139" y="82.5" width="7" height="7"/><rect class="cls-6" x="139" y="74.5" width="7" height="8"/><rect class="cls-6" x="139" y="66.5" width="7" height="8"/><rect class="cls-10" x="139" y="59.5" width="7" height="7"/><rect class="cls-10" x="139" y="51.5" width="7" height="8"/><rect class="cls-10" x="139" y="44.5" width="7" height="7"/><rect class="cls-10" x="139" y="36.5" width="7" height="8"/><rect class="cls-4" x="131" y="246.5" width="8" height="8"/><rect class="cls-1" x="131" y="239.5" width="8" height="7"/><rect class="cls-1" x="131" y="231.5" width="8" height="8"/><rect class="cls-5" x="131" y="224.5" width="8" height="7"/><rect class="cls-2" x="131" y="216.5" width="8" height="8"/><rect class="cls-2" x="131" y="209.5" width="8" height="7"/><rect class="cls-2" x="131" y="201.5" width="8" height="8"/><rect class="cls-2" x="131" y="194.5" width="8" height="7"/><rect class="cls-2" x="131" y="186.5" width="8" height="8"/><rect class="cls-2" x="131" y="179.5" width="8" height="7"/><rect class="cls-2" x="131" y="171.5" width="8" height="8"/><rect class="cls-2" x="131" y="163.5" width="8" height="8"/><rect class="cls-2" x="131" y="156.5" width="8" height="7"/><rect class="cls-2" x="131" y="149.5" width="8" height="7"/><rect class="cls-2" x="131" y="142.5" width="8" height="7"/><rect class="cls-11" x="131" y="134.5" width="8" height="8"/><rect class="cls-1" x="131" y="127.5" width="8" height="7"/><rect class="cls-1" x="131" y="119.5" width="8" height="8"/><rect class="cls-1" x="122" y="239.5" width="9" height="7"/><rect class="cls-1" x="122" y="231.5" width="9" height="8"/><rect class="cls-4" x="122" y="224.5" width="9" height="7"/><rect class="cls-2" x="122" y="216.5" width="9" height="8"/><rect class="cls-2" x="122" y="209.5" width="9" height="7"/><rect class="cls-2" x="122" y="201.5" width="9" height="8"/><rect class="cls-2" x="122" y="194.5" width="9" height="7"/><rect class="cls-2" x="122" y="186.5" width="9" height="8"/><rect class="cls-2" x="122" y="179.5" width="9" height="7"/><rect class="cls-2" x="122" y="171.5" width="9" height="8"/><rect class="cls-2" x="122" y="163.5" width="9" height="8"/><rect class="cls-2" x="122" y="156.5" width="9" height="7"/><rect class="cls-2" x="122" y="149.5" width="9" height="7"/><rect class="cls-2" x="122" y="142.5" width="9" height="7"/><rect class="cls-2" x="122" y="134.5" width="9" height="8"/><rect class="cls-2" x="122" y="127.5" width="9" height="7"/><rect class="cls-1" x="122" y="119.5" width="9" height="8"/><rect class="cls-1" x="122" y="112.5" width="9" height="7"/><rect class="cls-1" x="115" y="239.5" width="7" height="7"/><rect class="cls-4" x="115" y="231.5" width="7" height="8"/><rect class="cls-4" x="115" y="224.5" width="7" height="7"/><rect class="cls-4" x="115" y="216.5" width="7" height="8"/><rect class="cls-2" x="115" y="209.5" width="7" height="7"/><rect class="cls-4" x="115" y="201.5" width="7" height="8"/><rect class="cls-2" x="115" y="194.5" width="7" height="7"/><rect class="cls-5" x="115" y="186.5" width="7" height="8"/><rect class="cls-5" x="115" y="179.5" width="7" height="7"/><rect class="cls-2" x="115" y="171.5" width="7" height="8"/><rect class="cls-2" x="115" y="163.5" width="7" height="8"/><rect class="cls-2" x="115" y="156.5" width="7" height="7"/><rect class="cls-2" x="115" y="149.5" width="7" height="7"/><rect class="cls-2" x="115" y="142.5" width="7" height="7"/><rect class="cls-2" x="115" y="134.5" width="7" height="8"/><rect class="cls-2" x="115" y="127.5" width="7" height="7"/><rect class="cls-2" x="115" y="119.5" width="7" height="8"/><rect class="cls-1" x="115" y="112.5" width="7" height="7"/><rect class="cls-1" x="115" y="104.5" width="7" height="8"/><rect class="cls-4" x="108" y="231.5" width="7" height="8"/><rect class="cls-4" x="108" y="224.5" width="7" height="7"/><rect class="cls-4" x="108" y="216.5" width="7" height="8"/><rect class="cls-4" x="108" y="209.5" width="7" height="7"/><rect class="cls-2" x="108" y="201.5" width="7" height="8"/><rect class="cls-2" x="108" y="194.5" width="7" height="7"/><rect class="cls-5" x="108" y="186.5" width="7" height="8"/><rect class="cls-5" x="108" y="179.5" width="7" height="7"/><rect class="cls-5" x="108" y="171.5" width="7" height="8"/><rect class="cls-5" x="108" y="163.5" width="7" height="8"/><rect class="cls-2" x="108" y="156.5" width="7" height="7"/><rect class="cls-2" x="108" y="149.5" width="7" height="7"/><rect class="cls-2" x="108" y="142.5" width="7" height="7"/><rect class="cls-2" x="108" y="134.5" width="7" height="8"/><rect class="cls-2" x="108" y="127.5" width="7" height="7"/><rect class="cls-2" x="108" y="119.5" width="7" height="8"/><rect class="cls-2" x="108" y="112.5" width="7" height="7"/><rect class="cls-1" x="108" y="104.5" width="7" height="8"/><rect class="cls-1" x="108" y="97.5" width="7" height="7"/><rect class="cls-2" x="99" y="328.5" width="9" height="8"/><rect class="cls-2" x="99" y="321.5" width="9" height="7"/><rect class="cls-2" x="99" y="313.5" width="9" height="8"/><rect class="cls-2" x="99" y="306.5" width="9" height="7"/><rect class="cls-2" x="99" y="298.5" width="9" height="8"/><rect class="cls-2" x="99" y="291.5" width="9" height="7"/><rect class="cls-2" x="99" y="283.5" width="9" height="8"/><rect class="cls-2" x="99" y="276.5" width="9" height="7"/><rect class="cls-2" x="99" y="269.5" width="9" height="7"/><rect class="cls-2" x="99" y="261.5" width="9" height="8"/><rect class="cls-2" x="99" y="254.5" width="9" height="7"/><rect class="cls-2" x="99" y="246.5" width="9" height="8"/><rect class="cls-2" x="99" y="239.5" width="9" height="7"/><rect class="cls-4" x="99" y="231.5" width="9" height="8"/><rect class="cls-2" x="99" y="224.5" width="9" height="7"/><rect class="cls-2" x="99" y="216.5" width="9" height="8"/><rect class="cls-2" x="99" y="209.5" width="9" height="7"/><rect class="cls-2" x="99" y="201.5" width="9" height="8"/><rect class="cls-2" x="99" y="194.5" width="9" height="7"/><rect class="cls-5" x="99" y="186.5" width="9" height="8"/><rect class="cls-5" x="99" y="179.5" width="9" height="7"/><rect class="cls-5" x="99" y="171.5" width="9" height="8"/><rect class="cls-2" x="99" y="163.5" width="9" height="8"/><rect class="cls-2" x="99" y="156.5" width="9" height="7"/><rect class="cls-2" x="99" y="149.5" width="9" height="7"/><rect class="cls-2" x="99" y="142.5" width="9" height="7"/><rect class="cls-2" x="99" y="134.5" width="9" height="8"/><rect class="cls-2" x="99" y="127.5" width="9" height="7"/><rect class="cls-2" x="99" y="119.5" width="9" height="8"/><rect class="cls-2" x="99" y="112.5" width="9" height="7"/><rect class="cls-2" x="99" y="104.5" width="9" height="8"/><rect class="cls-1" x="99" y="97.5" width="9" height="7"/><rect class="cls-1" x="99" y="89.5" width="9" height="8"/><rect class="cls-3" x="92" y="336.5" width="7" height="7"/><rect class="cls-3" x="92" y="328.5" width="7" height="8"/><rect class="cls-4" x="92" y="321.5" width="7" height="7"/><rect class="cls-4" x="92" y="313.5" width="7" height="8"/><rect class="cls-4" x="92" y="306.5" width="7" height="7"/><rect class="cls-4" x="92" y="298.5" width="7" height="8"/><rect class="cls-4" x="92" y="291.5" width="7" height="7"/><rect class="cls-4" x="92" y="283.5" width="7" height="8"/><rect class="cls-4" x="92" y="276.5" width="7" height="7"/><rect class="cls-4" x="92" y="269.5" width="7" height="7"/><rect class="cls-4" x="92" y="261.5" width="7" height="8"/><rect class="cls-2" x="92" y="254.5" width="7" height="7"/><rect class="cls-2" x="92" y="246.5" width="7" height="8"/><rect class="cls-2" x="92" y="239.5" width="7" height="7"/><rect class="cls-2" x="92" y="231.5" width="7" height="8"/><rect class="cls-2" x="92" y="224.5" width="7" height="7"/><rect class="cls-2" x="92" y="216.5" width="7" height="8"/><rect class="cls-2" x="92" y="209.5" width="7" height="7"/><rect class="cls-2" x="92" y="201.5" width="7" height="8"/><rect class="cls-2" x="92" y="194.5" width="7" height="7"/><rect class="cls-5" x="92" y="186.5" width="7" height="8"/><rect class="cls-5" x="92" y="179.5" width="7" height="7"/><rect class="cls-2" x="92" y="171.5" width="7" height="8"/><rect class="cls-2" x="92" y="163.5" width="7" height="8"/><rect class="cls-4" x="92" y="156.5" width="7" height="7"/><rect class="cls-4" x="92" y="149.5" width="7" height="7"/><rect class="cls-2" x="92" y="142.5" width="7" height="7"/><rect class="cls-2" x="92" y="134.5" width="7" height="8"/><rect class="cls-2" x="92" y="127.5" width="7" height="7"/><rect class="cls-2" x="92" y="119.5" width="7" height="8"/><rect class="cls-2" x="92" y="112.5" width="7" height="7"/><rect class="cls-2" x="92" y="104.5" width="7" height="8"/><rect class="cls-2" x="92" y="97.5" width="7" height="7"/><rect class="cls-1" x="92" y="89.5" width="7" height="8"/><rect class="cls-1" x="92" y="82.5" width="7" height="7"/><rect class="cls-3" x="83" y="336.5" width="9" height="7"/><rect class="cls-3" x="83" y="328.5" width="9" height="8"/><rect class="cls-4" x="83" y="254.5" width="9" height="7"/><rect class="cls-4" x="83" y="246.5" width="9" height="8"/><rect class="cls-4" x="83" y="239.5" width="9" height="7"/><rect class="cls-4" x="83" y="231.5" width="9" height="8"/><rect class="cls-4" x="83" y="224.5" width="9" height="7"/><rect class="cls-4" x="83" y="216.5" width="9" height="8"/><rect class="cls-2" x="83" y="209.5" width="9" height="7"/><rect class="cls-2" x="83" y="201.5" width="9" height="8"/><rect class="cls-2" x="83" y="194.5" width="9" height="7"/><rect class="cls-2" x="83" y="186.5" width="9" height="8"/><rect class="cls-2" x="83" y="179.5" width="9" height="7"/><rect class="cls-2" x="83" y="171.5" width="9" height="8"/><rect class="cls-2" x="83" y="163.5" width="9" height="8"/><rect class="cls-4" x="83" y="156.5" width="9" height="7"/><rect class="cls-4" x="83" y="149.5" width="9" height="7"/><rect class="cls-4" x="83" y="142.5" width="9" height="7"/><rect class="cls-2" x="83" y="134.5" width="9" height="8"/><rect class="cls-2" x="83" y="127.5" width="9" height="7"/><rect class="cls-4" x="83" y="119.5" width="9" height="8"/><rect class="cls-2" x="83" y="112.5" width="9" height="7"/><rect class="cls-2" x="83" y="104.5" width="9" height="8"/><rect class="cls-2" x="83" y="97.5" width="9" height="7"/><rect class="cls-2" x="83" y="89.5" width="9" height="8"/><rect class="cls-1" x="83" y="82.5" width="9" height="7"/><rect class="cls-1" x="83" y="74.5" width="9" height="8"/><rect class="cls-3" x="75" y="336.5" width="8" height="7"/><rect class="cls-2" x="75" y="239.5" width="8" height="7"/><rect class="cls-2" x="75" y="231.5" width="8" height="8"/><rect class="cls-4" x="75" y="224.5" width="8" height="7"/><rect class="cls-4" x="75" y="216.5" width="8" height="8"/><rect class="cls-4" x="75" y="209.5" width="8" height="7"/><rect class="cls-2" x="75" y="201.5" width="8" height="8"/><rect class="cls-2" x="75" y="194.5" width="8" height="7"/><rect class="cls-2" x="75" y="186.5" width="8" height="8"/><rect class="cls-2" x="75" y="179.5" width="8" height="7"/><rect class="cls-2" x="75" y="171.5" width="8" height="8"/><rect class="cls-4" x="75" y="163.5" width="8" height="8"/><rect class="cls-4" x="75" y="156.5" width="8" height="7"/><rect class="cls-4" x="75" y="149.5" width="8" height="7"/><rect class="cls-4" x="75" y="142.5" width="8" height="7"/><rect class="cls-4" x="75" y="134.5" width="8" height="8"/><rect class="cls-4" x="75" y="127.5" width="8" height="7"/><rect class="cls-4" x="75" y="119.5" width="8" height="8"/><rect class="cls-4" x="75" y="112.5" width="8" height="7"/><rect class="cls-4" x="75" y="104.5" width="8" height="8"/><rect class="cls-2" x="75" y="97.5" width="8" height="7"/><rect class="cls-2" x="75" y="89.5" width="8" height="8"/><rect class="cls-2" x="75" y="82.5" width="8" height="7"/><rect class="cls-2" x="75" y="74.5" width="8" height="8"/><rect class="cls-2" x="75" y="66.5" width="8" height="8"/><rect class="cls-2" x="75" y="59.5" width="8" height="7"/><rect class="cls-2" x="69" y="246.5" width="6" height="8"/><rect class="cls-2" x="69" y="239.5" width="6" height="7"/><rect class="cls-4" x="69" y="231.5" width="6" height="8"/><rect class="cls-4" x="69" y="224.5" width="6" height="7"/><rect class="cls-4" x="69" y="209.5" width="6" height="7"/><rect class="cls-4" x="69" y="201.5" width="6" height="8"/><rect class="cls-4" x="69" y="194.5" width="6" height="7"/><rect class="cls-4" x="69" y="186.5" width="6" height="8"/><rect class="cls-4" x="69" y="179.5" width="6" height="7"/><rect class="cls-4" x="69" y="171.5" width="6" height="8"/><rect class="cls-4" x="69" y="163.5" width="6" height="8"/><rect class="cls-4" x="69" y="149.5" width="6" height="7"/><rect class="cls-4" x="69" y="142.5" width="6" height="7"/><rect class="cls-4" x="69" y="134.5" width="6" height="8"/><rect class="cls-4" x="69" y="127.5" width="6" height="7"/><rect class="cls-4" x="69" y="119.5" width="6" height="8"/><rect class="cls-4" x="69" y="112.5" width="6" height="7"/><rect class="cls-2" x="69" y="104.5" width="6" height="8"/><rect class="cls-2" x="69" y="97.5" width="6" height="7"/><rect class="cls-2" x="69" y="89.5" width="6" height="8"/><rect class="cls-2" x="69" y="82.5" width="6" height="7"/><rect class="cls-4" x="69" y="74.5" width="6" height="8"/><rect class="cls-11" x="69" y="66.5" width="6" height="8"/><rect class="cls-4" x="69" y="59.5" width="6" height="7"/><rect class="cls-4" x="69" y="51.5" width="6" height="8"/><rect class="cls-2" x="60" y="246.5" width="9" height="8"/><rect class="cls-4" x="60" y="239.5" width="9" height="7"/><rect class="cls-4" x="60" y="231.5" width="9" height="8"/><rect class="cls-4" x="60" y="127.5" width="9" height="7"/><rect class="cls-4" x="60" y="119.5" width="9" height="8"/><rect class="cls-2" x="60" y="112.5" width="9" height="7"/><rect x="60" y="104.5" width="9" height="8"/><rect x="60" y="97.5" width="9" height="7"/><rect class="cls-4" x="60" y="89.5" width="9" height="8"/><rect class="cls-2" x="60" y="82.5" width="9" height="7"/><rect class="cls-4" x="60" y="74.5" width="9" height="8"/><rect class="cls-4" x="60" y="66.5" width="9" height="8"/><rect class="cls-3" x="52" y="306.5" width="8" height="7"/><rect class="cls-3" x="52" y="298.5" width="8" height="8"/><rect class="cls-2" x="52" y="254.5" width="8" height="7"/><rect class="cls-4" x="52" y="246.5" width="8" height="8"/><rect class="cls-4" x="52" y="239.5" width="8" height="7"/><rect class="cls-4" x="52" y="134.5" width="8" height="8"/><rect class="cls-2" x="52" y="127.5" width="8" height="7"/><rect class="cls-2" x="52" y="119.5" width="8" height="8"/><rect class="cls-2" x="52" y="112.5" width="8" height="7"/><rect x="52" y="104.5" width="8" height="8"/><rect class="cls-15" x="52" y="97.5" width="8" height="7"/><rect class="cls-4" x="52" y="89.5" width="8" height="8"/><rect class="cls-2" x="52" y="82.5" width="8" height="7"/><rect class="cls-2" x="52" y="74.5" width="8" height="8"/><rect class="cls-2" x="52" y="66.5" width="8" height="8"/><rect class="cls-2" x="52" y="59.5" width="8" height="7"/><rect class="cls-3" x="45" y="306.5" width="7" height="7"/><rect class="cls-3" x="45" y="298.5" width="7" height="8"/><rect class="cls-2" x="45" y="291.5" width="7" height="7"/><rect class="cls-2" x="45" y="254.5" width="7" height="7"/><rect class="cls-4" x="45" y="246.5" width="7" height="8"/><rect class="cls-4" x="45" y="149.5" width="7" height="7"/><rect class="cls-4" x="45" y="142.5" width="7" height="7"/><rect class="cls-2" x="45" y="134.5" width="7" height="8"/><rect class="cls-2" x="45" y="127.5" width="7" height="7"/><rect class="cls-2" x="45" y="119.5" width="7" height="8"/><rect class="cls-2" x="45" y="112.5" width="7" height="7"/><rect class="cls-2" x="45" y="104.5" width="7" height="8"/><rect class="cls-2" x="45" y="97.5" width="7" height="7"/><rect class="cls-2" x="45" y="89.5" width="7" height="8"/><rect class="cls-2" x="45" y="82.5" width="7" height="7"/><rect class="cls-4" x="45" y="74.5" width="7" height="8"/><rect class="cls-11" x="45" y="66.5" width="7" height="8"/><rect class="cls-4" x="45" y="59.5" width="7" height="7"/><rect class="cls-4" x="45" y="51.5" width="7" height="8"/><rect class="cls-3" x="36" y="306.5" width="9" height="7"/><rect class="cls-4" x="36" y="298.5" width="9" height="8"/><rect class="cls-4" x="36" y="291.5" width="9" height="7"/><rect class="cls-2" x="36" y="283.5" width="9" height="8"/><rect class="cls-2" x="36" y="276.5" width="9" height="7"/><rect class="cls-2" x="36" y="269.5" width="9" height="7"/><rect class="cls-2" x="36" y="261.5" width="9" height="8"/><rect class="cls-2" x="36" y="254.5" width="9" height="7"/><rect class="cls-4" x="36" y="246.5" width="9" height="8"/><rect class="cls-4" x="36" y="149.5" width="9" height="7"/><rect class="cls-4" x="36" y="142.5" width="9" height="7"/><rect class="cls-2" x="36" y="134.5" width="9" height="8"/><rect class="cls-2" x="36" y="127.5" width="9" height="7"/><rect class="cls-2" x="36" y="119.5" width="9" height="8"/><rect class="cls-2" x="36" y="112.5" width="9" height="7"/><rect class="cls-2" x="36" y="104.5" width="9" height="8"/><rect class="cls-4" x="36" y="97.5" width="9" height="7"/><rect class="cls-2" x="36" y="89.5" width="9" height="8"/><rect class="cls-4" x="36" y="82.5" width="9" height="7"/><rect class="cls-4" x="29" y="291.5" width="7" height="7"/><rect class="cls-4" x="29" y="283.5" width="7" height="8"/><rect class="cls-4" x="29" y="276.5" width="7" height="7"/><rect class="cls-4" x="29" y="269.5" width="7" height="7"/><rect class="cls-4" x="29" y="261.5" width="7" height="8"/><rect class="cls-4" x="29" y="254.5" width="7" height="7"/><rect class="cls-4" x="29" y="149.5" width="7" height="7"/><rect class="cls-4" x="29" y="142.5" width="7" height="7"/><rect class="cls-11" x="29" y="134.5" width="7" height="8"/><rect class="cls-11" x="29" y="127.5" width="7" height="7"/><rect class="cls-4" x="29" y="119.5" width="7" height="8"/><rect class="cls-4" x="29" y="112.5" width="7" height="7"/><rect class="cls-4" x="29" y="104.5" width="7" height="8"/><rect class="cls-4" x="29" y="89.5" width="7" height="8"/><rect class="cls-4" x="21" y="149.5" width="8" height="7"/><rect class="cls-4" x="21" y="142.5" width="8" height="7"/><rect class="cls-4" x="21" y="134.5" width="8" height="8"/><rect class="cls-4" x="21" y="127.5" width="8" height="7"/><rect class="cls-4" x="21" y="119.5" width="8" height="8"/><rect class="cls-4" x="13" y="142.5" width="8" height="7"/><rect class="cls-4" x="13" y="134.5" width="8" height="8"/><rect class="cls-4" x="13" y="127.5" width="8" height="7"/></svg>